<?xml version="1.0" encoding="UTF-8" standalone="no"?>
<!-- Created with Inkscape (http://www.inkscape.org/) -->

<svg
   xmlns:dc="http://purl.org/dc/elements/1.1/"
   xmlns:cc="http://creativecommons.org/ns#"
   xmlns:rdf="http://www.w3.org/1999/02/22-rdf-syntax-ns#"
   xmlns:svg="http://www.w3.org/2000/svg"
   xmlns="http://www.w3.org/2000/svg"
   xmlns:sodipodi="http://sodipodi.sourceforge.net/DTD/sodipodi-0.dtd"
   xmlns:inkscape="http://www.inkscape.org/namespaces/inkscape"
   width="146.84377mm"
   height="123.59819mm"
   viewBox="0 0 146.84376 123.59819"
   version="1.1"
   id="svg27707"
   inkscape:version="0.92.5 (2060ec1f9f, 2020-04-08)"
   sodipodi:docname="calendar.svg"
   inkscape:export-filename="/home/daniel/Projects/Git/word-detective/server/games/puzzle-from-text/mask-calendar.png"
   inkscape:export-xdpi="69.190002"
   inkscape:export-ydpi="69.190002">
  <defs
     id="defs27701">
    <mask
       maskUnits="userSpaceOnUse"
       id="mask1706-6-7-9-6">
      <g
         transform="matrix(0.35277777,0,0,-0.35277777,447.21634,290.95343)"
         inkscape:label="ink_ext_XXXXXX"
         id="g1774-7-6-9-7"
         clip-path="url(#clipPath2689-3-1-4-3)">
        <g
           transform="scale(0.1)"
           id="g1772-5-8-9-5">
          <path
             inkscape:connector-curvature="0"
             id="path1708-3-7-6-3"
             style="fill:#4d7fc9;fill-opacity:1;fill-rule:nonzero;stroke:none"
             d="m 1493.48,87.5508 c 0,6.5508 -0.95,12.1992 -2.89,16.8472 -1.88,4.704 -4.54,8.313 -7.96,10.864 -3.4,2.488 -7.12,3.758 -11.27,3.758 -6.55,0 -12.07,-2.75 -16.57,-8.09 -4.51,-5.442 -6.76,-13.3284 -6.76,-23.8206 0,-9.8711 2.25,-17.5391 6.69,-22.9688 4.49,-5.4922 10.05,-8.2695 16.64,-8.2695 3.95,0 7.61,1.1992 10.99,3.6289 3.33,2.3906 6.05,5.9609 8.07,10.7188 2.06,4.8125 3.06,10.5703 3.06,17.332 z m -46.56,36.0972 v -2.976 c 4.46,5.738 9.1,10 13.91,12.66 4.81,2.707 10.3,4.066 16.39,4.066 7.3,0 14.03,-1.988 20.18,-5.918 6.14,-3.929 10.99,-9.648 14.57,-17.242 3.57,-7.586 5.34,-16.5192 5.34,-26.8864 0,-7.6133 -1.01,-14.6797 -3.07,-20.9922 -2.05,-6.4102 -4.88,-11.7891 -8.49,-16.1094 -3.6,-4.3281 -7.86,-7.6797 -12.74,-9.9805 -4.92,-2.3593 -10.19,-3.5078 -15.79,-3.5078 -6.82,0 -12.52,1.4102 -17.13,4.2578 -4.65,2.8399 -9.01,6.9922 -13.17,12.5196 V 16.3516 C 1446.92,5.42188 1443.12,0 1435.52,0 c -4.46,0 -7.43,1.37891 -8.85,4.19141 -1.46,2.82031 -2.17,6.91799 -2.17,12.30859 v 107 c 0,4.711 0.94,8.262 2.94,10.57 1.99,2.321 4.68,3.52 8.08,3.52 3.37,0 6.12,-1.199 8.23,-3.61 2.11,-2.429 3.17,-5.859 3.17,-10.332" />
          <path
             inkscape:connector-curvature="0"
             id="path1710-5-3-0-5"
             style="fill:#4d7fc9;fill-opacity:1;fill-rule:nonzero;stroke:none"
             d="m 1598.11,50.7695 v 3.1407 c -2.87,-3.75 -5.85,-6.8789 -9,-9.3985 -3.13,-2.5898 -6.55,-4.4726 -10.24,-5.7031 -3.74,-1.2188 -7.98,-1.8477 -12.72,-1.8477 -5.73,0 -10.88,1.25 -15.43,3.711 -4.57,2.4765 -8.08,5.8984 -10.57,10.25 -2.98,5.2773 -4.44,12.8476 -4.44,22.6679 v 49.1482 c 0,4.922 1.07,8.653 3.23,11.082 2.14,2.45 4.97,3.7 8.51,3.7 3.6,0 6.5,-1.25 8.71,-3.75 2.19,-2.481 3.29,-6.18 3.29,-11.032 V 83.0313 c 0,-5.7227 0.47,-10.5508 1.36,-14.4297 0.97,-3.9297 2.62,-6.9922 5.06,-9.211 2.37,-2.1992 5.64,-3.289 9.75,-3.289 4.04,0 7.81,1.25 11.31,3.7304 3.57,2.4571 6.16,5.6875 7.77,9.668 1.35,3.5391 1.99,11.1992 1.99,23.0781 v 30.1599 c 0,4.852 1.11,8.551 3.32,11.032 2.19,2.5 5.04,3.75 8.59,3.75 3.54,0 6.39,-1.25 8.52,-3.7 2.14,-2.429 3.2,-6.16 3.2,-11.082 V 50.9219 c 0,-4.7227 -1,-8.2735 -3.08,-10.6133 -2.03,-2.3789 -4.68,-3.5273 -7.94,-3.5273 -3.24,0 -5.91,1.25 -8.04,3.6484 -2.1,2.4805 -3.15,5.8789 -3.15,10.3398" />
          <path
             inkscape:connector-curvature="0"
             id="path1712-6-2-6-6"
             style="fill:#4d7fc9;fill-opacity:1;fill-rule:nonzero;stroke:none"
             d="m 1666.99,86.5586 c 0,-9.8594 2.15,-17.4063 6.45,-22.7305 4.33,-5.2695 10,-7.957 17.03,-7.957 5.99,0 11.11,2.7305 15.46,8.1406 4.34,5.418 6.48,13.1485 6.48,23.2696 0,6.5976 -0.9,12.2109 -2.69,16.9097 -1.81,4.75 -4.38,8.387 -7.65,10.95 -3.35,2.57 -7.18,3.879 -11.6,3.879 -4.56,0 -8.53,-1.309 -12.09,-3.879 -3.55,-2.563 -6.32,-6.301 -8.37,-11.172 -2.02,-4.8401 -3.02,-10.6292 -3.02,-17.4104 z m -1.14,73.6914 v -37.891 c 4.42,4.891 9,8.563 13.64,11.192 4.64,2.551 10.4,3.847 17.25,3.847 7.87,0 14.77,-1.988 20.74,-5.847 5.93,-3.961 10.57,-9.59 13.83,-16.992 3.29,-7.418 4.92,-16.1996 4.92,-26.3793 0,-7.5195 -0.91,-14.3984 -2.71,-20.6875 -1.85,-6.25 -4.49,-11.6602 -7.96,-16.3008 -3.51,-4.582 -7.73,-8.0898 -12.68,-10.6914 -4.97,-2.4687 -10.44,-3.7383 -16.4,-3.7383 -3.64,0 -7.09,0.4571 -10.33,1.3672 -3.23,0.8906 -5.97,2.082 -8.21,3.6016 -2.28,1.4179 -4.2,2.9883 -5.79,4.5312 -1.61,1.5977 -3.68,3.9375 -6.3,7.0899 v -2.4297 c 0,-4.6797 -1.08,-8.1914 -3.24,-10.6133 -2.13,-2.3789 -4.88,-3.5469 -8.15,-3.5469 -3.39,0 -6.05,1.168 -8.07,3.5469 -1.99,2.4609 -2.99,5.9531 -2.99,10.6133 V 159.16 c 0,4.992 0.98,8.789 2.92,11.36 1.94,2.601 4.63,3.871 8.14,3.871 3.62,0 6.45,-1.231 8.41,-3.711 1.99,-2.43 2.98,-5.891 2.98,-10.43" />
          <path
             inkscape:connector-curvature="0"
             id="path1714-2-5-4-2"
             style="fill:#4d7fc9;fill-opacity:1;fill-rule:nonzero;stroke:none"
             d="M 1752.99,51.8516 V 159.32 c 0,4.981 1.06,8.711 3.16,11.27 2.14,2.531 4.98,3.801 8.58,3.801 3.6,0 6.49,-1.25 8.7,-3.77 2.17,-2.5 3.3,-6.301 3.3,-11.301 V 51.8516 c 0,-5.0313 -1.14,-8.8203 -3.36,-11.3516 -2.21,-2.4687 -5.11,-3.7383 -8.64,-3.7383 -3.48,0 -6.28,1.2969 -8.47,3.9102 -2.19,2.6094 -3.27,6.3086 -3.27,11.1797" />
          <path
             inkscape:connector-curvature="0"
             id="path1716-9-43-3-9"
             style="fill:#4d7fc9;fill-opacity:1;fill-rule:nonzero;stroke:none"
             d="M 1825,123.43 V 51.8516 c 0,-5 -1.15,-8.75 -3.37,-11.293 -2.27,-2.5 -5.17,-3.7969 -8.62,-3.7969 -3.49,0 -6.31,1.2969 -8.48,3.8867 -2.17,2.6329 -3.27,6.3321 -3.27,11.2032 v 70.8864 c 0,4.852 1.1,8.551 3.27,11.032 2.17,2.5 4.99,3.75 8.48,3.75 3.45,0 6.35,-1.25 8.62,-3.75 2.22,-2.481 3.37,-5.918 3.37,-10.34 z m -11.75,25.629 c -3.29,0 -6.11,1.05 -8.5,3.23 -2.29,2.102 -3.49,5.133 -3.49,9 0,3.5 1.2,6.359 3.61,8.672 2.39,2.277 5.18,3.348 8.38,3.348 3.07,0 5.82,-1 8.19,-3.047 2.36,-2.051 3.56,-5.082 3.56,-8.973 0,-3.84 -1.18,-6.809 -3.48,-8.937 -2.32,-2.153 -5.06,-3.293 -8.27,-3.293" />
          <path
             inkscape:connector-curvature="0"
             id="path1718-1-5-0-1"
             style="fill:#4d7fc9;fill-opacity:1;fill-rule:nonzero;stroke:none"
             d="m 1934.6,67.4414 c 0,-3.0703 -0.87,-6.3828 -2.63,-9.8828 -1.8,-3.5195 -4.48,-6.8477 -8.12,-10.0195 -3.61,-3.168 -8.18,-5.7383 -13.68,-7.6602 -5.5,-1.9687 -11.74,-2.918 -18.61,-2.918 -14.68,0 -26.13,4.4688 -34.37,13.3789 -8.23,8.9415 -12.35,20.8711 -12.35,35.8907 0,10.1601 1.87,19.1795 5.62,26.9605 3.78,7.778 9.27,13.848 16.37,18.098 7.12,4.293 15.66,6.422 25.55,6.422 6.17,0 11.83,-0.961 16.96,-2.813 5.13,-1.886 9.48,-4.316 13.03,-7.257 3.57,-2.969 6.29,-6.141 8.2,-9.493 1.91,-3.347 2.81,-6.488 2.81,-9.398 0,-2.93 -1.08,-5.43 -3.17,-7.52 -2.13,-2.0581 -4.67,-3.0894 -7.7,-3.0894 -1.98,0 -3.61,0.5703 -4.93,1.6289 -1.28,1.0195 -2.77,2.6915 -4.38,5.0895 -2.91,4.582 -5.93,8.063 -9.1,10.403 -3.16,2.289 -7.19,3.468 -12.02,3.468 -7.05,0 -12.71,-2.898 -16.99,-8.609 -4.29,-5.762 -6.42,-13.5702 -6.42,-23.4999 0,-4.6523 0.56,-8.9727 1.65,-12.8594 1.1,-3.9219 2.71,-7.2226 4.77,-9.9922 2.1,-2.7578 4.6,-4.8398 7.59,-6.25 2.95,-1.4375 6.2,-2.1601 9.7,-2.1601 4.8,0 8.85,1.1406 12.24,3.4492 3.41,2.3203 6.41,5.832 9,10.5117 1.47,2.8399 3.03,5 4.72,6.6016 1.69,1.5703 3.75,2.3086 6.18,2.3086 2.89,0 5.3,-1.1094 7.23,-3.3985 1.87,-2.3515 2.85,-4.7812 2.85,-7.3906" />
          <path
             inkscape:connector-curvature="0"
             id="path1720-2-7-5-2"
             style="fill:#4d7fc9;fill-opacity:1;fill-rule:nonzero;stroke:none"
             d="m 1973.72,87.2813 c 0,-6.711 1,-12.4102 3,-17.1524 2,-4.7266 4.71,-8.2383 8.17,-10.6289 3.52,-2.4297 7.31,-3.6289 11.39,-3.6289 4.2,0 8.01,1.1602 11.44,3.4102 3.46,2.2773 6.2,5.7695 8.29,10.457 2.05,4.6836 3.06,10.543 3.06,17.543 0,6.6406 -1.01,12.2773 -3.06,17.0507 -2.09,4.77 -4.85,8.379 -8.36,10.93 -3.51,2.488 -7.35,3.758 -11.51,3.758 -4.33,0 -8.21,-1.309 -11.66,-3.879 -3.39,-2.563 -6.06,-6.27 -7.94,-11.09 -1.87,-4.8322 -2.82,-10.3596 -2.82,-16.7697 z m 46.66,-36.3594 v 2.4297 c -3.17,-3.8203 -6.33,-6.9024 -9.45,-9.2813 -3.07,-2.4101 -6.45,-4.2187 -10.07,-5.4687 -3.6,-1.2032 -7.59,-1.8399 -11.87,-1.8399 -5.66,0 -10.95,1.2696 -15.78,3.7383 -4.82,2.6016 -9.02,6.1289 -12.55,10.7891 -3.53,4.6523 -6.21,10.1406 -8.06,16.4609 -1.84,6.2617 -2.74,13.0703 -2.74,20.4297 0,15.4613 3.63,27.5903 10.87,36.2423 7.27,8.66 16.8,12.976 28.62,12.976 6.84,0 12.62,-1.25 17.3,-3.75 4.69,-2.398 9.28,-6.179 13.73,-11.289 v 36.602 c 0,5.078 0.98,8.918 2.93,11.519 1.93,2.61 4.68,3.911 8.28,3.911 3.6,0 6.35,-1.211 8.32,-3.571 1.95,-2.379 2.94,-5.929 2.94,-10.57 V 50.9219 c 0,-4.7227 -1.06,-8.2735 -3.15,-10.6133 -2.09,-2.3789 -4.79,-3.5469 -8.11,-3.5469 -3.2,0 -5.92,1.2188 -8.05,3.668 -2.1,2.4297 -3.16,5.9101 -3.16,10.4922" />
          <path
             inkscape:connector-curvature="0"
             id="path1722-7-5-4-7"
             style="fill:#4d7fc9;fill-opacity:1;fill-rule:nonzero;stroke:none"
             d="m 2131.74,87.0898 c 0,10.0704 -2.15,17.9612 -6.42,23.5822 -4.26,5.598 -10,8.449 -17.17,8.449 -4.66,0 -8.73,-1.281 -12.28,-3.781 -3.52,-2.539 -6.25,-6.238 -8.16,-11.149 -1.92,-4.8512 -2.88,-10.5504 -2.88,-17.1012 0,-6.4804 0.96,-12.1289 2.84,-16.9609 1.88,-4.8398 4.58,-8.5469 8.1,-11.1289 3.48,-2.5508 7.66,-3.8203 12.38,-3.8203 7.17,0 12.91,2.8008 17.17,8.4609 4.27,5.6289 6.42,13.4805 6.42,23.4492 z m 23.82,0 c 0,-7.3515 -1.11,-14.1601 -3.3,-20.4375 -2.21,-6.1718 -5.38,-11.5507 -9.55,-16.0312 -4.19,-4.5 -9.18,-7.8516 -14.99,-10.3125 -5.8,-2.3789 -12.36,-3.5469 -19.57,-3.5469 -7.18,0 -13.64,1.168 -19.39,3.6289 -5.74,2.3985 -10.71,5.8711 -14.93,10.3789 -4.19,4.5196 -7.37,9.8203 -9.58,15.9493 -2.17,6.1914 -3.23,12.9414 -3.23,20.4101 0,7.5 1.1,14.3591 3.29,20.5821 2.21,6.25 5.36,11.551 9.47,16 4.13,4.41 9.1,7.809 14.98,10.199 5.88,2.379 12.31,3.61 19.39,3.61 7.2,0 13.73,-1.231 19.57,-3.649 5.84,-2.41 10.86,-5.891 15.04,-10.371 4.18,-4.48 7.36,-9.82 9.51,-16 2.22,-6.148 3.29,-12.9805 3.29,-20.4102" />
          <path
             inkscape:connector-curvature="0"
             id="path1724-0-6-1-0"
             style="fill:#4d7fc9;fill-opacity:1;fill-rule:nonzero;stroke:none"
             d="m 2255.85,107.551 c -1.77,-4.192 -2.63,-11.5705 -2.63,-22.219 V 52.3984 c 0,-5.1796 -1.11,-9.1171 -3.41,-11.7265 -2.24,-2.6133 -5.25,-3.9102 -8.96,-3.9102 -3.57,0 -6.47,1.2969 -8.69,3.9102 -2.24,2.6094 -3.34,6.5469 -3.34,11.7265 v 39.5235 c 0,6.2187 -0.24,11.0471 -0.65,14.5471 -0.41,3.41 -1.5,6.269 -3.29,8.48 -1.76,2.223 -4.64,3.332 -8.5,3.332 -7.76,0 -12.85,-2.793 -15.35,-8.402 -2.48,-5.547 -3.68,-13.5509 -3.68,-23.9688 V 52.3984 c 0,-5.1601 -1.13,-9.0781 -3.34,-11.6562 -2.24,-2.6836 -5.19,-3.9805 -8.8,-3.9805 -3.62,0 -6.6,1.2969 -8.86,3.9805 -2.31,2.5781 -3.41,6.4961 -3.41,11.6289 v 70.9379 c 0,4.671 0.99,8.211 3.03,10.621 2.09,2.41 4.78,3.66 8.16,3.66 3.24,0 5.96,-1.129 8.13,-3.399 2.17,-2.269 3.26,-5.402 3.26,-9.402 v -2.359 c 4.1,5.16 8.52,8.941 13.2,11.34 4.69,2.41 9.96,3.628 15.66,3.628 5.97,0 11.06,-1.25 15.37,-3.75 4.31,-2.449 7.82,-6.218 10.59,-11.218 4.01,5.039 8.31,8.859 12.89,11.289 4.6,2.461 9.65,3.679 15.21,3.679 6.53,0 12.11,-1.296 16.78,-4 4.72,-2.668 8.22,-6.457 10.54,-11.437 2.04,-4.481 3.04,-11.52 3.04,-21.172 V 52.3984 c 0,-5.1796 -1.12,-9.1171 -3.36,-11.7265 -2.31,-2.6133 -5.26,-3.9102 -8.98,-3.9102 -3.6,0 -6.55,1.2969 -8.81,3.9805 -2.33,2.5781 -3.48,6.4961 -3.48,11.6562 v 41.7032 c 0,5.3203 -0.21,9.5784 -0.64,12.7964 -0.43,3.25 -1.61,5.903 -3.54,8.082 -1.89,2.192 -4.81,3.301 -8.67,3.301 -3.13,0 -6.11,-0.98 -8.89,-2.879 -2.86,-1.972 -5,-4.57 -6.58,-7.851 v 0" />
          <path
             inkscape:connector-curvature="0"
             id="path1726-9-5-4-9"
             style="fill:#4d7fc9;fill-opacity:1;fill-rule:nonzero;stroke:none"
             d="m 2390.32,86.6211 c -3.49,-1.3594 -8.55,-2.7422 -15.19,-4.25 -6.64,-1.4805 -11.25,-2.5391 -13.81,-3.2695 -2.55,-0.711 -4.98,-2.0508 -7.29,-4.0703 -2.34,-2.0821 -3.49,-4.9024 -3.49,-8.5313 0,-3.7812 1.36,-6.9687 4.09,-9.5781 2.73,-2.6719 6.3,-3.9727 10.71,-3.9727 4.69,0 9.04,1.0899 13.01,3.25 3.97,2.1211 6.89,4.9297 8.73,8.3008 2.15,3.75 3.24,9.9219 3.24,18.5898 z m 1.56,-35.9102 c -5.77,-4.6523 -11.31,-8.1406 -16.67,-10.4414 -5.36,-2.3593 -11.38,-3.5078 -18.03,-3.5078 -6.13,0 -11.45,1.2696 -16.07,3.7383 -4.63,2.5313 -8.17,5.9492 -10.67,10.2695 -2.48,4.2891 -3.75,8.9219 -3.75,13.961 0,6.7812 2.11,12.5508 6.21,17.3398 4.09,4.7383 9.75,7.961 16.92,9.6094 1.52,0.3594 5.28,1.1523 11.23,2.4219 6.01,1.3007 11.1,2.4492 15.41,3.5 4.23,1.039 8.88,2.3281 13.86,3.8394 -0.31,6.571 -1.56,11.36 -3.78,14.469 -2.24,3.031 -6.9,4.531 -13.89,4.531 -6.05,0 -10.57,-0.851 -13.66,-2.621 -3.02,-1.73 -5.64,-4.39 -7.79,-7.941 -2.2,-3.488 -3.71,-5.809 -4.61,-6.93 -0.92,-1.129 -2.85,-1.64 -5.78,-1.64 -2.69,0 -4.98,0.871 -6.89,2.64 -1.98,1.793 -2.95,4.063 -2.95,6.883 0,4.359 1.49,8.609 4.44,12.668 2.96,4.141 7.57,7.52 13.83,10.219 6.26,2.672 14.07,3.992 23.41,3.992 10.43,0 18.64,-1.32 24.64,-3.891 5.96,-2.531 10.15,-6.57 12.62,-12.199 2.48,-5.531 3.72,-12.941 3.72,-22.1288 0,-5.8008 0,-10.7813 -0.05,-14.8008 -0.05,-4.082 -0.06,-8.6016 -0.13,-13.5508 0,-4.6406 0.74,-9.5312 2.22,-14.5508 1.45,-5.0507 2.19,-8.3203 2.19,-9.7382 0,-2.5508 -1.17,-4.8907 -3.44,-6.9727 -2.24,-2.0703 -4.85,-3.1172 -7.75,-3.1172 -2.45,0 -4.82,1.168 -7.25,3.5469 -2.35,2.4219 -4.88,5.8906 -7.54,10.4023" />
          <path
             inkscape:connector-curvature="0"
             id="path1728-3-9-5-3"
             style="fill:#4d7fc9;fill-opacity:1;fill-rule:nonzero;stroke:none"
             d="M 2461.49,123.43 V 51.8516 c 0,-5 -1.14,-8.75 -3.37,-11.293 -2.27,-2.5 -5.12,-3.7969 -8.6,-3.7969 -3.48,0 -6.35,1.2969 -8.49,3.8867 -2.19,2.6329 -3.28,6.3321 -3.28,11.2032 v 70.8864 c 0,4.852 1.09,8.551 3.28,11.032 2.14,2.5 5.01,3.75 8.49,3.75 3.48,0 6.33,-1.25 8.6,-3.75 2.23,-2.481 3.37,-5.918 3.37,-10.34 z m -11.73,25.629 c -3.29,0 -6.1,1.05 -8.46,3.23 -2.34,2.102 -3.55,5.133 -3.55,9 0,3.5 1.22,6.359 3.65,8.672 2.38,2.277 5.19,3.348 8.36,3.348 3.06,0 5.82,-1 8.2,-3.047 2.34,-2.051 3.53,-5.082 3.53,-8.973 0,-3.84 -1.15,-6.809 -3.46,-8.937 -2.34,-2.153 -5.09,-3.293 -8.27,-3.293" />
          <path
             inkscape:connector-curvature="0"
             id="path1730-6-5-8-6"
             style="fill:#4d7fc9;fill-opacity:1;fill-rule:nonzero;stroke:none"
             d="m 2507.63,123.789 v -2.957 c 4.14,5.719 8.72,9.949 13.65,12.637 4.98,2.679 10.65,4.051 17.15,4.051 6.23,0 11.83,-1.418 16.79,-4.309 4.89,-2.82 8.6,-6.801 11.02,-12.012 1.56,-3.051 2.55,-6.347 3.04,-9.828 0.44,-3.5 0.71,-7.973 0.71,-13.4296 V 51.8516 c 0,-5 -1.13,-8.75 -3.28,-11.293 -2.18,-2.5 -5.02,-3.7969 -8.48,-3.7969 -3.51,0 -6.4,1.2969 -8.54,3.9102 -2.22,2.6094 -3.35,6.3086 -3.35,11.1797 v 41.2578 c 0,8.2106 -1.06,14.4416 -3.22,18.7696 -2.24,4.32 -6.57,6.5 -13.07,6.5 -4.22,0 -8.08,-1.32 -11.56,-3.969 -3.48,-2.601 -6.03,-6.238 -7.64,-10.84 -1.16,-3.6911 -1.77,-10.57 -1.77,-20.738 V 51.8516 c 0,-5.0313 -1.1,-8.8203 -3.35,-11.3516 -2.24,-2.4687 -5.11,-3.7383 -8.64,-3.7383 -3.41,0 -6.24,1.2969 -8.43,3.8867 -2.23,2.6329 -3.32,6.3321 -3.32,11.2032 V 123.43 c 0,4.742 0.98,8.23 2.97,10.57 1.94,2.34 4.69,3.52 8.09,3.52 2.07,0 3.98,-0.559 5.62,-1.559 1.74,-1.012 3.05,-2.602 4.06,-4.59 0.99,-2.109 1.55,-4.609 1.55,-7.582" />
          <path
             inkscape:connector-curvature="0"
             id="path1732-0-8-5-0"
             style="fill:#4d7fc9;fill-opacity:1;fill-rule:nonzero;stroke:none"
             d="m 2608.09,122.082 19.19,-56.2617 20.7,58.7187 c 1.66,4.723 3.24,8.031 4.82,10.02 1.59,1.941 3.93,2.961 7.1,2.961 3.04,0 5.6,-1.059 7.76,-3.219 2.08,-2.102 3.15,-4.512 3.15,-7.36 0,-1.082 -0.21,-2.332 -0.59,-3.742 -0.35,-1.488 -0.79,-2.859 -1.29,-4.148 -0.5,-1.231 -1.01,-2.711 -1.69,-4.321 l -22.8,-58.9995 c -0.64,-1.6914 -1.48,-3.8594 -2.48,-6.4688 -1.03,-2.582 -2.17,-4.7812 -3.4,-6.6914 -1.27,-1.8203 -2.79,-3.2187 -4.6,-4.2617 -1.84,-1.0195 -4.07,-1.5469 -6.68,-1.5469 -3.36,0 -6.05,0.7891 -8.06,2.3789 -2.01,1.6094 -3.5,3.3516 -4.43,5.2891 -0.94,1.8789 -2.58,5.6601 -4.83,11.3008 l -22.63,58.3515 c -0.53,1.449 -1.07,2.91 -1.65,4.348 -0.52,1.449 -0.94,2.91 -1.35,4.441 -0.36,1.551 -0.57,2.84 -0.57,3.891 0,1.726 0.49,3.398 1.5,5.07 0.98,1.668 2.37,3.047 4.09,4.09 1.75,1.039 3.6,1.598 5.66,1.598 3.92,0 6.64,-1.18 8.12,-3.59 1.49,-2.34 3.15,-6.289 4.96,-11.848" />
          <path
             inkscape:connector-curvature="0"
             id="path1734-6-3-1-6"
             style="fill:#4d7fc9;fill-opacity:1;fill-rule:nonzero;stroke:none"
             d="m 2705.22,95.1719 h 43.05 c -0.56,8.4371 -2.73,14.7891 -6.56,18.9691 -3.82,4.191 -8.81,6.3 -15.02,6.3 -5.88,0 -10.76,-2.132 -14.53,-6.39 -3.82,-4.231 -6.09,-10.551 -6.94,-18.8791 z m 46.47,-14.0899 h -46.47 c 0.02,-5.6718 1.16,-10.6015 3.23,-14.9414 2.16,-4.25 4.96,-7.4922 8.45,-9.6914 3.52,-2.1992 7.41,-3.2578 11.64,-3.2578 2.83,0 5.44,0.3477 7.78,1.0078 2.34,0.7422 4.63,1.8203 6.85,3.293 2.17,1.4883 4.18,3.0391 6.06,4.7969 1.83,1.6718 4.31,3.9414 7.21,6.8632 1.25,1.1368 2.97,1.6485 5.22,1.6485 2.46,0 4.42,-0.6719 5.93,-2.0899 1.52,-1.4023 2.24,-3.3515 2.24,-5.8789 0,-2.2422 -0.83,-4.8711 -2.53,-7.8906 -1.67,-2.9609 -4.16,-5.8516 -7.6,-8.6328 -3.4,-2.7266 -7.67,-4.9883 -12.8,-6.8477 -5.09,-1.8007 -10.97,-2.6992 -17.69,-2.6992 -15.24,0 -27.11,4.5586 -35.55,13.5977 -8.44,9.1211 -12.67,21.4101 -12.67,36.9219 0,7.4101 1.06,14.1597 3.12,20.4097 2.09,6.27 5.12,11.641 9.12,16.098 4.01,4.512 8.91,7.973 14.79,10.32 5.88,2.391 12.34,3.602 19.51,3.602 9.21,0 17.19,-2.039 23.83,-6.16 6.65,-4.082 11.62,-9.321 14.91,-15.781 3.33,-6.508 4.97,-13.079 4.97,-19.8403 0,-6.1992 -1.66,-10.25 -5.12,-12.0703 -3.46,-1.8906 -8.22,-2.7774 -14.43,-2.7774" />
          <path
             inkscape:connector-curvature="0"
             id="path1736-2-3-9-2"
             style="fill:#4d7fc9;fill-opacity:1;fill-rule:nonzero;stroke:none"
             d="m 2876.43,67.4414 c 0,-3.0703 -0.87,-6.3828 -2.67,-9.8828 -1.78,-3.5195 -4.43,-6.8477 -8.09,-10.0195 -3.61,-3.168 -8.2,-5.7383 -13.73,-7.6602 -5.48,-1.9687 -11.72,-2.918 -18.58,-2.918 -14.7,0 -26.15,4.4688 -34.37,13.3789 -8.21,8.9415 -12.36,20.8711 -12.36,35.8907 0,10.1601 1.88,19.1795 5.67,26.9605 3.77,7.778 9.19,13.848 16.34,18.098 7.11,4.293 15.67,6.422 25.59,6.422 6.14,0 11.76,-0.961 16.93,-2.813 5.11,-1.886 9.44,-4.316 13.05,-7.257 3.56,-2.969 6.27,-6.141 8.18,-9.493 1.86,-3.347 2.82,-6.488 2.82,-9.398 0,-2.93 -1.05,-5.43 -3.23,-7.52 -2.09,-2.0581 -4.65,-3.0894 -7.65,-3.0894 -2,0 -3.62,0.5703 -4.89,1.6289 -1.34,1.0195 -2.8,2.6915 -4.45,5.0895 -2.89,4.582 -5.9,8.063 -9.06,10.403 -3.18,2.289 -7.19,3.468 -12.08,3.468 -6.97,0 -12.66,-2.898 -16.93,-8.609 -4.32,-5.762 -6.44,-13.5702 -6.44,-23.4999 0,-4.6523 0.57,-8.9727 1.64,-12.8594 1.11,-3.9219 2.71,-7.2226 4.8,-9.9922 2.09,-2.7578 4.63,-4.8398 7.58,-6.25 2.91,-1.4375 6.17,-2.1601 9.73,-2.1601 4.73,0 8.85,1.1406 12.23,3.4492 3.37,2.3203 6.4,5.832 9.02,10.5117 1.44,2.8399 2.99,5 4.68,6.6016 1.67,1.5703 3.72,2.3086 6.18,2.3086 2.87,0 5.3,-1.1094 7.17,-3.3985 1.95,-2.3515 2.92,-4.7812 2.92,-7.3906" />
          <path
             inkscape:connector-curvature="0"
             id="path1738-6-1-9-6"
             style="fill:#4d7fc9;fill-opacity:1;fill-rule:nonzero;stroke:none"
             d="m 2898.49,135.41 h 2.61 v 14.91 c 0,3.961 0.1,7.129 0.32,9.391 0.19,2.269 0.72,4.187 1.7,5.84 0.89,1.668 2.24,3.07 4,4.14 1.71,1.039 3.65,1.539 5.8,1.539 3.01,0 5.74,-1.171 8.16,-3.5 1.61,-1.609 2.65,-3.5 3.09,-5.75 0.44,-2.269 0.64,-5.531 0.64,-9.691 V 135.41 h 8.73 c 3.36,0 5.93,-0.828 7.69,-2.5 1.81,-1.66 2.67,-3.769 2.67,-6.379 0,-3.332 -1.25,-5.699 -3.81,-7 -2.5,-1.312 -6.12,-1.98 -10.82,-1.98 h -4.46 V 71.9102 c 0,-3.8907 0.13,-6.8711 0.4,-8.9805 0.29,-2.1094 1.02,-3.8008 2.13,-5.0703 1.11,-1.3203 2.94,-1.9883 5.51,-1.9883 1.39,0 3.26,0.25 5.67,0.7891 2.33,0.5117 4.19,0.7617 5.55,0.7617 1.9,0 3.66,-0.8321 5.17,-2.3633 1.51,-1.6367 2.31,-3.5781 2.31,-5.9688 0,-3.9804 -2.05,-7.0312 -6.25,-9.1679 -4.22,-2.1133 -10.2,-3.1602 -18.01,-3.1602 -7.43,0 -13.07,1.2969 -16.89,3.9102 -3.82,2.6094 -6.35,6.1797 -7.5,10.8281 -1.22,4.6016 -1.8,10.7305 -1.8,18.4219 v 47.6291 h -3.17 c -3.35,0 -5.98,0.828 -7.78,2.551 -1.82,1.679 -2.71,3.82 -2.71,6.429 0,2.61 0.95,4.719 2.8,6.379 1.92,1.672 4.65,2.5 8.25,2.5" />
          <path
             inkscape:connector-curvature="0"
             id="path1740-1-9-6-1"
             style="fill:#4d7fc9;fill-opacity:1;fill-rule:nonzero;stroke:none"
             d="m 3025.26,87.0898 c 0,10.0704 -2.15,17.9612 -6.39,23.5822 -4.3,5.598 -9.97,8.449 -17.19,8.449 -4.64,0 -8.73,-1.281 -12.26,-3.781 -3.55,-2.539 -6.27,-6.238 -8.16,-11.149 -1.91,-4.8512 -2.89,-10.5504 -2.89,-17.1012 0,-6.4804 0.98,-12.1289 2.85,-16.9609 1.88,-4.8398 4.55,-8.5469 8.07,-11.1289 3.49,-2.5508 7.61,-3.8203 12.39,-3.8203 7.22,0 12.89,2.8008 17.19,8.4609 4.24,5.6289 6.39,13.4805 6.39,23.4492 z m 23.83,0 c 0,-7.3515 -1.1,-14.1601 -3.33,-20.4375 -2.18,-6.1718 -5.39,-11.5507 -9.55,-16.0312 -4.17,-4.5 -9.17,-7.8516 -14.95,-10.3125 -5.81,-2.3789 -12.29,-3.5469 -19.58,-3.5469 -7.23,0 -13.68,1.168 -19.4,3.6289 -5.74,2.3985 -10.74,5.8711 -14.91,10.3789 -4.2,4.5196 -7.4,9.8203 -9.55,15.9493 -2.17,6.1914 -3.24,12.9414 -3.24,20.4101 0,7.5 1.07,14.3591 3.24,20.5821 2.27,6.25 5.37,11.551 9.49,16 4.15,4.41 9.13,7.809 14.97,10.199 5.91,2.379 12.36,3.61 19.4,3.61 7.22,0 13.7,-1.231 19.58,-3.649 5.85,-2.41 10.85,-5.891 15.04,-10.371 4.14,-4.48 7.38,-9.82 9.53,-16 2.16,-6.148 3.26,-12.9805 3.26,-20.4102" />
          <path
             inkscape:connector-curvature="0"
             id="path1742-8-9-7-8"
             style="fill:#4d7fc9;fill-opacity:1;fill-rule:nonzero;stroke:none"
             d="M 3091.4,72.4805 V 51.8516 c 0,-5.0313 -1.14,-8.8203 -3.4,-11.3516 -2.27,-2.4687 -5.14,-3.7383 -8.63,-3.7383 -3.4,0 -6.24,1.2969 -8.42,3.7969 -2.21,2.543 -3.29,6.293 -3.29,11.293 v 68.9574 c 0,11.152 3.83,16.711 11.55,16.711 3.91,0 6.78,-1.34 8.53,-3.918 1.72,-2.582 2.64,-6.454 2.88,-11.52 2.83,5.066 5.76,8.938 8.75,11.52 2.98,2.578 6.94,3.918 11.91,3.918 5.04,0 9.83,-1.34 14.56,-3.918 4.68,-2.582 7.06,-6.051 7.06,-10.34 0,-3.024 -1.04,-5.551 -3.03,-7.492 -1.97,-1.95 -4.15,-2.969 -6.48,-2.969 -0.86,0 -2.97,0.578 -6.32,1.711 -3.33,1.117 -6.28,1.687 -8.84,1.687 -3.45,0 -6.3,-0.937 -8.47,-2.89 -2.21,-1.918 -3.94,-4.719 -5.16,-8.469 -1.21,-3.77 -2.09,-8.2189 -2.53,-13.4181 -0.44,-5.1406 -0.67,-11.4414 -0.67,-18.9414" />
          <path
             inkscape:connector-curvature="0"
             id="path1744-7-6-9-7"
             style="fill:#4d7fc9;fill-opacity:1;fill-rule:nonzero;stroke:none"
             d="m 3217.88,69.1289 c 0,-6.8398 -1.6,-12.6797 -4.82,-17.5703 -3.21,-4.8789 -7.91,-8.5273 -14.14,-11.0781 -6.25,-2.4492 -13.81,-3.7188 -22.8,-3.7188 -8.45,0 -15.8,1.3672 -21.91,4.0899 -6.08,2.7304 -10.6,6.1093 -13.47,10.1875 -2.92,4.0625 -4.4,8.1601 -4.4,12.2617 0,2.7305 0.95,5.0703 2.85,6.9883 1.84,1.9726 4.19,2.9101 7.01,2.9101 2.5,0 4.43,-0.6406 5.76,-1.8906 1.35,-1.3281 2.58,-3.0898 3.82,-5.3672 2.45,-4.4414 5.34,-7.7422 8.78,-9.9219 3.34,-2.2109 7.99,-3.2695 13.89,-3.2695 4.72,0 8.63,1.1094 11.68,3.332 3.02,2.1875 4.61,4.7188 4.61,7.5586 0,4.3789 -1.62,7.5703 -4.75,9.5313 -3.2,2.0586 -8.38,3.9492 -15.64,5.75 -8.17,2.1367 -14.83,4.3476 -19.97,6.6679 -5.14,2.3321 -9.29,5.4415 -12.34,9.2422 -3.08,3.7578 -4.63,8.488 -4.63,14.059 0,4.98 1.43,9.679 4.28,14.05 2.82,4.438 7.07,7.957 12.59,10.61 5.53,2.629 12.21,3.969 20.07,3.969 6.13,0 11.66,-0.688 16.58,-2.008 4.88,-1.321 9.02,-3.133 12.24,-5.352 3.29,-2.25 5.8,-4.719 7.5,-7.422 1.74,-2.769 2.58,-5.418 2.58,-8.008 0,-2.851 -0.9,-5.14 -2.75,-7.019 -1.84,-1.75 -4.46,-2.68 -7.78,-2.68 -2.46,0 -4.51,0.711 -6.25,2.199 -1.68,1.43 -3.67,3.602 -5.85,6.469 -1.8,2.43 -3.91,4.391 -6.37,5.832 -2.44,1.438 -5.74,2.18 -9.9,2.18 -4.3,0 -7.89,-0.949 -10.69,-2.871 -2.85,-1.899 -4.29,-4.281 -4.29,-7.129 0,-2.609 1.05,-4.742 3.12,-6.41 2.11,-1.66 4.9,-3.031 8.46,-4.141 3.55,-1.09 8.42,-2.4491 14.63,-3.9998 7.36,-1.8594 13.38,-4.1016 18.04,-6.7188 4.67,-2.582 8.21,-5.6406 10.61,-9.1992 2.44,-3.5703 3.65,-7.6016 3.65,-12.1133" />
          <path
             inkscape:connector-curvature="0"
             id="path1746-9-1-0-9"
             style="fill:#4d7fc9;fill-opacity:1;fill-rule:nonzero;stroke:none"
             d="m 3244.83,36.7617 c -3.59,0 -6.7,1.168 -9.27,3.6289 -2.66,2.3985 -3.95,5.8086 -3.95,10.1407 0,3.6679 1.23,6.8593 3.69,9.5273 2.5,2.6602 5.61,3.9531 9.26,3.9531 3.63,0 6.76,-1.2929 9.28,-3.9336 2.62,-2.5859 3.92,-5.8281 3.92,-9.5468 0,-4.2891 -1.3,-7.6719 -3.92,-10.1016 -2.52,-2.4492 -5.53,-3.668 -9.01,-3.668" />
          <path
             inkscape:connector-curvature="0"
             id="path1748-2-7-5-2"
             style="fill:#4d7fc9;fill-opacity:1;fill-rule:nonzero;stroke:none"
             d="m 3349.83,87.0898 c 0,10.0704 -2.14,17.9612 -6.4,23.5822 -4.26,5.598 -9.96,8.449 -17.15,8.449 -4.65,0 -8.69,-1.281 -12.25,-3.781 -3.55,-2.539 -6.27,-6.238 -8.16,-11.149 -1.9,-4.8512 -2.87,-10.5504 -2.87,-17.1012 0,-6.4804 0.92,-12.1289 2.79,-16.9609 1.93,-4.8398 4.61,-8.5469 8.13,-11.1289 3.49,-2.5508 7.61,-3.8203 12.36,-3.8203 7.19,0 12.89,2.8008 17.15,8.4609 4.26,5.6289 6.4,13.4805 6.4,23.4492 z m 23.87,0 c 0,-7.3515 -1.09,-14.1601 -3.34,-20.4375 -2.21,-6.1718 -5.37,-11.5507 -9.55,-16.0312 -4.2,-4.5 -9.12,-7.8516 -14.96,-10.3125 -5.78,-2.3789 -12.31,-3.5469 -19.57,-3.5469 -7.19,0 -13.65,1.168 -19.4,3.6289 -5.74,2.3985 -10.68,5.8711 -14.88,10.3789 -4.26,4.5196 -7.42,9.8203 -9.63,15.9493 -2.13,6.1914 -3.22,12.9414 -3.22,20.4101 0,7.5 1.09,14.3591 3.3,20.5821 2.25,6.25 5.35,11.551 9.45,16 4.13,4.41 9.13,7.809 14.98,10.199 5.86,2.379 12.29,3.61 19.4,3.61 7.19,0 13.71,-1.231 19.57,-3.649 5.88,-2.41 10.88,-5.891 15.06,-10.371 4.16,-4.48 7.32,-9.82 9.53,-16 2.17,-6.148 3.26,-12.9805 3.26,-20.4102" />
          <path
             inkscape:connector-curvature="0"
             id="path1750-0-1-9-0"
             style="fill:#4d7fc9;fill-opacity:1;fill-rule:nonzero;stroke:none"
             d="M 3415.99,72.4805 V 51.8516 c 0,-5.0313 -1.14,-8.8203 -3.38,-11.3516 -2.25,-2.4687 -5.14,-3.7383 -8.6,-3.7383 -3.47,0 -6.25,1.2969 -8.47,3.7969 -2.21,2.543 -3.3,6.293 -3.3,11.293 v 68.9574 c 0,11.152 3.9,16.711 11.58,16.711 3.94,0 6.76,-1.34 8.49,-3.918 1.72,-2.582 2.74,-6.454 2.93,-11.52 2.8,5.066 5.71,8.938 8.7,11.52 2.98,2.578 6.99,3.918 11.93,3.918 5.06,0 9.9,-1.34 14.55,-3.918 4.71,-2.582 7.07,-6.051 7.07,-10.34 0,-3.024 -1.02,-5.551 -2.99,-7.492 -2.03,-1.95 -4.16,-2.969 -6.52,-2.969 -0.84,0 -2.93,0.578 -6.27,1.711 -3.34,1.117 -6.29,1.687 -8.87,1.687 -3.46,0 -6.27,-0.937 -8.53,-2.89 -2.17,-1.918 -3.89,-4.719 -5.12,-8.469 -1.19,-3.77 -2.05,-8.2189 -2.5,-13.4181 -0.45,-5.1406 -0.7,-11.4414 -0.7,-18.9414" />
          <path
             inkscape:connector-curvature="0"
             id="path1752-2-4-7-2"
             style="fill:#4d7fc9;fill-opacity:1;fill-rule:nonzero;stroke:none"
             d="m 3484.54,87.9414 c 0,-10.0195 2.11,-17.6328 6.33,-22.793 4.18,-5.1171 9.65,-7.7265 16.27,-7.7265 3.92,0 7.69,1.1601 11.19,3.3594 3.52,2.2187 6.37,5.5273 8.59,9.9687 2.21,4.4805 3.29,9.8594 3.29,16.1914 0,10.0977 -2.15,17.9566 -6.41,23.5896 -4.24,5.668 -9.86,8.489 -16.8,8.489 -6.76,0 -12.22,-2.75 -16.29,-8.09 -4.12,-5.418 -6.17,-13.0511 -6.17,-22.9886 z m 68.83,31.4376 V 47.3516 c 0,-8.2422 -0.9,-15.3203 -2.54,-21.2227 -1.68,-5.957 -4.39,-10.8594 -8.09,-14.7187 -3.71,-3.87895 -8.59,-6.73051 -14.55,-8.62895 C 3522.18,0.960938 3514.7,0 3505.79,0 c -8.2,0 -15.53,1.14844 -21.93,3.55078 -6.45,2.44922 -11.41,5.48047 -14.89,9.28902 -3.47,3.75 -5.23,7.6485 -5.23,11.6719 0,3.0274 0.98,5.4883 2.99,7.3867 1.95,1.9414 4.33,2.8907 7.11,2.8907 3.49,0 6.5,-1.6172 9.16,-4.8203 1.27,-1.6797 2.62,-3.3086 3.94,-4.9493 1.35,-1.6875 2.85,-3.1211 4.52,-4.2773 1.66,-1.2109 3.67,-2.082 5.99,-2.6602 2.27,-0.582 4.96,-0.8632 7.99,-0.8632 6.11,0 10.94,0.9101 14.3,2.6796 3.39,1.7735 5.78,4.2735 7.16,7.4727 1.31,3.2109 2.17,6.6289 2.31,10.3086 0.29,3.7109 0.45,9.5586 0.6,17.6797 -3.65,-5.3008 -7.93,-9.3711 -12.67,-12.1485 -4.77,-2.7812 -10.49,-4.1406 -17.05,-4.1406 -8.01,0 -14.96,2.0703 -20.86,6.3399 -5.98,4.2382 -10.55,10.1406 -13.73,17.8007 -3.15,7.5899 -4.79,16.3985 -4.79,26.3985 0,7.4804 0.96,14.2106 2.95,20.2106 1.9,5.95 4.65,11.012 8.3,15.129 3.56,4.121 7.74,7.231 12.42,9.332 4.73,2.059 9.83,3.117 15.49,3.117 6.7,0 12.54,-1.359 17.46,-4.066 4.98,-2.66 9.52,-6.922 13.75,-12.66 V 124 c 0,4.332 1.06,7.621 3.05,10.051 2.03,2.34 4.65,3.539 7.81,3.539 4.61,0 7.66,-1.551 9.18,-4.68 1.49,-3.121 2.25,-7.66 2.25,-13.531" />
          <path
             inkscape:connector-curvature="0"
             id="path1754-3-0-6-3"
             style="fill:#4d7fc9;fill-opacity:1;fill-rule:nonzero;stroke:none"
             d="m 2524.18,360.68 h 35.24 c -2.5,-18.989 -10.27,-33.809 -23.22,-44.481 -11.98,-10.437 -26.48,-15.59 -43.44,-15.59 -22.98,0 -41.34,8.071 -55.05,24.211 -12.99,15.328 -19.48,35.129 -19.48,59.321 0,24.8 6.45,44.621 19.31,59.621 12.82,14.937 31,22.457 54.45,22.457 17.46,0 32.23,-4.719 44.21,-14.098 12.72,-10.121 20.47,-24.351 23.22,-42.582 h -35.24 c -3.02,15.902 -12.74,23.82 -29.27,23.82 -27.2,0 -40.86,-16.129 -40.86,-48.398 0,-15.121 3.52,-27.461 10.51,-37.09 7.01,-9.641 16.88,-14.461 29.62,-14.461 18.97,0 28.99,9.102 30,27.27 z m -138.64,22.218 c 0,-31.519 10,-58.207 29.97,-79.929 19.98,-21.758 44.42,-32.637 73.45,-32.637 28.91,0 53.39,10.879 73.35,32.637 20,21.722 29.95,48.41 29.95,79.929 0,31.512 -9.95,58.172 -29.95,79.911 -19.96,21.773 -44.44,32.64 -73.35,32.64 -29.03,0 -53.47,-10.867 -73.45,-32.64 -19.97,-21.739 -29.97,-48.399 -29.97,-79.911 z m -35.77,0 c 0,40.114 13.56,74.344 40.74,102.782 27.2,28.39 60.02,42.59 98.45,42.59 38.37,0 71.15,-14.2 98.37,-42.59 27.19,-28.438 40.8,-62.668 40.8,-102.782 0,-40.136 -13.61,-74.418 -40.8,-102.796 -27.22,-28.422 -60,-42.633 -98.37,-42.633 -38.43,0 -71.25,14.211 -98.45,42.633 -27.18,28.378 -40.74,62.66 -40.74,102.796" />
          <path
             inkscape:connector-curvature="0"
             id="path1756-7-2-6-7"
             style="fill:#4d7fc9;fill-opacity:1;fill-rule:nonzero;stroke:none"
             d="m 2406.08,291.719 20.3,-17.219 149.28,191.691 -20.29,17.2 -149.29,-191.672" />
          <path
             inkscape:connector-curvature="0"
             id="path1758-5-5-8-5"
             style="fill:#4d7fc9;fill-opacity:1;fill-rule:evenodd;stroke:none"
             d="M 718.848,5368.17 H 4688.45 c 110.84,0 201.52,-90.68 201.52,-201.5 V 1456.06 c 0,-110.88 -90.68,-201.57 -201.52,-201.57 H 718.848 c -110.879,0 -201.551,90.69 -201.551,201.57 v 3710.61 c 0,110.82 90.672,201.5 201.551,201.5" />
          <path
             inkscape:connector-curvature="0"
             id="path1760-9-80-1-9"
             style="fill:#b8d5f1;fill-opacity:1;fill-rule:evenodd;stroke:none"
             d="M 201.555,5368.17 H 4171.16 c 110.83,0 201.52,-90.68 201.52,-201.5 V 1456.06 c 0,-110.88 -90.69,-201.57 -201.52,-201.57 H 201.555 C 90.6719,1254.49 0,1345.18 0,1456.06 v 3710.61 c 0,110.82 90.6719,201.5 201.555,201.5" />
          <path
             inkscape:connector-curvature="0"
             id="path1762-2-16-8-2"
             style="fill:#4d7fc9;fill-opacity:1;fill-rule:evenodd;stroke:none"
             d="m 3115.95,3606.27 c 159.18,0 318.35,0 477.53,0 0,-152.89 0,-305.81 0,-458.73 -159.18,0 -318.35,0 -477.53,0 0,152.92 0,305.84 0,458.73 z m 584.2,-622.44 c 159.17,0 318.35,0 477.49,0 0,-152.89 0,-305.78 0,-458.67 -159.14,0 -318.32,0 -477.49,0 0,152.89 0,305.78 0,458.67 z m -584.2,0 c 159.18,0 318.35,0 477.53,0 0,-152.89 0,-305.78 0,-458.67 -159.18,0 -318.35,0 -477.53,0 0,152.89 0,305.78 0,458.67 z m 584.2,-622.36 c 159.17,0 318.35,0 477.49,0 0,-152.93 0,-305.82 0,-458.72 -159.14,0 -318.32,0 -477.49,0 0,152.9 0,305.79 0,458.72 z m -584.2,0 c 159.18,0 318.35,0 477.53,0 0,-152.93 0,-305.82 0,-458.72 -159.18,0 -318.35,0 -477.53,0 0,152.9 0,305.79 0,458.72 z m 584.2,1867.2 h 477.49 v -458.7 h -477.49 z m -584.2,0 c 159.18,0 318.35,0 477.53,0 0,-152.92 0,-305.81 0,-458.7 -159.18,0 -318.35,0 -477.53,0 0,152.89 0,305.78 0,458.7 z m 584.2,-622.4 c 159.17,0 318.35,0 477.49,0 0,-152.89 0,-305.81 0,-458.73 -159.14,0 -318.32,0 -477.49,0 0,152.92 0,305.84 0,458.73 v 0" />
          <path
             inkscape:connector-curvature="0"
             id="path1764-2-9-9-2"
             style="fill:#ffffff;fill-opacity:1;fill-rule:evenodd;stroke:none"
             d="m 1947.59,3606.27 c 159.18,0 318.32,0 477.53,0 0,-152.89 0,-305.81 0,-458.73 -159.21,0 -318.35,0 -477.53,0 0,152.92 0,305.84 0,458.73 z m -584.16,0 c 159.14,0 318.32,0 477.49,0 0,-152.89 0,-305.81 0,-458.73 -159.17,0 -318.35,0 -477.49,0 0,152.92 0,305.84 0,458.73 z m -1168.391,0 c 159.172,0 318.352,0 477.488,0 0,-152.89 0,-305.81 0,-458.73 -159.136,0 -318.316,0 -477.488,0 0,152.92 0,305.84 0,458.73 z M 2531.76,2983.83 c 159.17,0 318.35,0 477.52,0 0,-152.89 0,-305.78 0,-458.67 -159.17,0 -318.35,0 -477.52,0 0,152.89 0,305.78 0,458.67 z m -584.17,0 c 159.18,0 318.32,0 477.53,0 0,-152.89 0,-305.78 0,-458.67 -159.21,0 -318.35,0 -477.53,0 0,152.89 0,305.78 0,458.67 z m -584.16,0 c 159.14,0 318.32,0 477.49,0 0,-152.89 0,-305.78 0,-458.67 -159.17,0 -318.35,0 -477.49,0 0,152.89 0,305.78 0,458.67 z m -1168.391,0 c 159.172,0 318.352,0 477.488,0 0,-152.89 0,-305.78 0,-458.67 -159.136,0 -318.316,0 -477.488,0 0,152.89 0,305.78 0,458.67 z M 2531.76,2361.47 c 159.17,0 318.35,0 477.52,0 0,-152.93 0,-305.82 0,-458.72 -159.17,0 -318.35,0 -477.52,0 0,152.9 0,305.79 0,458.72 z m -584.17,0 c 159.18,0 318.32,0 477.53,0 0,-152.93 0,-305.82 0,-458.72 -159.21,0 -318.35,0 -477.53,0 0,152.9 0,305.79 0,458.72 z m -584.16,0 c 159.14,0 318.32,0 477.49,0 0,-152.93 0,-305.82 0,-458.72 -159.17,0 -318.35,0 -477.49,0 0,152.9 0,305.79 0,458.72 z m -1168.391,0 c 159.172,0 318.352,0 477.488,0 0,-152.93 0,-305.82 0,-458.72 -159.136,0 -318.316,0 -477.488,0 0,152.9 0,305.79 0,458.72 z M 1363.43,1739.06 c 159.14,0 318.32,0 477.49,0 0,-152.93 0,-305.82 0,-458.71 -159.17,0 -318.35,0 -477.49,0 0,152.89 0,305.78 0,458.71 z m -1168.391,0 H 672.527 V 1280.35 H 195.039 Z m 584.191,0 c 159.137,0 318.35,0 477.5,0 0,-152.93 0,-305.82 0,-458.71 -159.15,0 -318.363,0 -477.5,0 0,152.89 0,305.78 0,458.71 z m 0,622.41 c 159.137,0 318.35,0 477.5,0 0,-152.93 0,-305.82 0,-458.72 -159.15,0 -318.363,0 -477.5,0 0,152.9 0,305.79 0,458.72 z m 0,622.36 c 159.137,0 318.35,0 477.5,0 0,-152.89 0,-305.78 0,-458.67 -159.15,0 -318.363,0 -477.5,0 0,152.89 0,305.78 0,458.67 z m 1752.53,1244.84 c 159.17,0 318.35,0 477.52,0 0,-152.92 0,-305.81 0,-458.7 -159.17,0 -318.35,0 -477.52,0 0,152.89 0,305.78 0,458.7 z m -584.17,0 c 159.18,0 318.32,0 477.53,0 0,-152.92 0,-305.81 0,-458.7 -159.21,0 -318.35,0 -477.53,0 0,152.89 0,305.78 0,458.7 z m -584.16,0 c 159.14,0 318.32,0 477.49,0 0,-152.92 0,-305.81 0,-458.7 -159.17,0 -318.35,0 -477.49,0 0,152.89 0,305.78 0,458.7 z m -1168.391,0 h 477.488 v -458.7 H 195.039 Z m 584.191,0 c 159.137,0 318.35,0 477.5,0 0,-152.92 0,-305.81 0,-458.7 -159.15,0 -318.363,0 -477.5,0 0,152.89 0,305.78 0,458.7 z m 0,-622.4 c 159.137,0 318.35,0 477.5,0 0,-152.89 0,-305.81 0,-458.73 -159.15,0 -318.363,0 -477.5,0 0,152.92 0,305.84 0,458.73 z m 1752.53,0 c 159.17,0 318.35,0 477.52,0 0,-152.89 0,-305.81 0,-458.73 -159.17,0 -318.35,0 -477.52,0 0,152.92 0,305.84 0,458.73 v 0" />
          <path
             inkscape:connector-curvature="0"
             id="path1766-8-7-2-8"
             style="fill:#f39c10;fill-opacity:1;fill-rule:evenodd;stroke:none"
             d="M 718.848,5368.17 H 4688.45 c 110.84,0 201.52,-90.68 201.52,-201.5 V 4615.16 H 517.297 v 551.51 c 0,110.82 90.672,201.5 201.551,201.5" />
          <path
             inkscape:connector-curvature="0"
             id="path1768-9-0-9-9"
             style="fill:#fbc907;fill-opacity:1;fill-rule:evenodd;stroke:none"
             d="M 201.555,5368.17 H 4171.16 c 110.83,0 201.52,-90.68 201.52,-201.5 V 4615.16 H 0 v 551.51 c 0,110.82 90.6719,201.5 201.555,201.5" />
          <path
             inkscape:connector-curvature="0"
             id="path1770-7-5-5-7"
             style="fill:#fbc907;fill-opacity:1;fill-rule:evenodd;stroke:none"
             d="m 1336.2,3992.04 222.72,-193.57 460.04,460.03 -191.07,191.07 -268.97,-499.95 -140.25,115.08 -82.47,-72.66" />
        </g>
      </g>
    </mask>
    <clipPath
       clipPathUnits="userSpaceOnUse"
       id="clipPath2689-3-1-4-3">
      <rect
         style="opacity:1;fill:#808080;fill-opacity:1;stroke:none;stroke-width:5.86145544;stroke-miterlimit:4;stroke-dasharray:none;stroke-dashoffset:0;stroke-opacity:1"
         id="rect2691-6-3-6-6"
         width="562.5"
         height="433.92856"
         x="-36.215771"
         y="-559.8371"
         transform="scale(1,-1)" />
    </clipPath>
    <mask
       maskUnits="userSpaceOnUse"
       id="mask1706-6-7-9-6-2">
      <g
         transform="matrix(0.35277777,0,0,-0.35277777,447.21634,290.95343)"
         inkscape:label="ink_ext_XXXXXX"
         id="g1774-7-6-9-7-9"
         clip-path="url(#clipPath2689-3-1-4-3-4)">
        <g
           transform="scale(0.1)"
           id="g1772-5-8-9-5-3">
          <path
             inkscape:connector-curvature="0"
             id="path1708-3-7-6-3-1"
             style="fill:#4d7fc9;fill-opacity:1;fill-rule:nonzero;stroke:none"
             d="m 1493.48,87.5508 c 0,6.5508 -0.95,12.1992 -2.89,16.8472 -1.88,4.704 -4.54,8.313 -7.96,10.864 -3.4,2.488 -7.12,3.758 -11.27,3.758 -6.55,0 -12.07,-2.75 -16.57,-8.09 -4.51,-5.442 -6.76,-13.3284 -6.76,-23.8206 0,-9.8711 2.25,-17.5391 6.69,-22.9688 4.49,-5.4922 10.05,-8.2695 16.64,-8.2695 3.95,0 7.61,1.1992 10.99,3.6289 3.33,2.3906 6.05,5.9609 8.07,10.7188 2.06,4.8125 3.06,10.5703 3.06,17.332 z m -46.56,36.0972 v -2.976 c 4.46,5.738 9.1,10 13.91,12.66 4.81,2.707 10.3,4.066 16.39,4.066 7.3,0 14.03,-1.988 20.18,-5.918 6.14,-3.929 10.99,-9.648 14.57,-17.242 3.57,-7.586 5.34,-16.5192 5.34,-26.8864 0,-7.6133 -1.01,-14.6797 -3.07,-20.9922 -2.05,-6.4102 -4.88,-11.7891 -8.49,-16.1094 -3.6,-4.3281 -7.86,-7.6797 -12.74,-9.9805 -4.92,-2.3593 -10.19,-3.5078 -15.79,-3.5078 -6.82,0 -12.52,1.4102 -17.13,4.2578 -4.65,2.8399 -9.01,6.9922 -13.17,12.5196 V 16.3516 C 1446.92,5.42188 1443.12,0 1435.52,0 c -4.46,0 -7.43,1.37891 -8.85,4.19141 -1.46,2.82031 -2.17,6.91799 -2.17,12.30859 v 107 c 0,4.711 0.94,8.262 2.94,10.57 1.99,2.321 4.68,3.52 8.08,3.52 3.37,0 6.12,-1.199 8.23,-3.61 2.11,-2.429 3.17,-5.859 3.17,-10.332" />
          <path
             inkscape:connector-curvature="0"
             id="path1710-5-3-0-5-9"
             style="fill:#4d7fc9;fill-opacity:1;fill-rule:nonzero;stroke:none"
             d="m 1598.11,50.7695 v 3.1407 c -2.87,-3.75 -5.85,-6.8789 -9,-9.3985 -3.13,-2.5898 -6.55,-4.4726 -10.24,-5.7031 -3.74,-1.2188 -7.98,-1.8477 -12.72,-1.8477 -5.73,0 -10.88,1.25 -15.43,3.711 -4.57,2.4765 -8.08,5.8984 -10.57,10.25 -2.98,5.2773 -4.44,12.8476 -4.44,22.6679 v 49.1482 c 0,4.922 1.07,8.653 3.23,11.082 2.14,2.45 4.97,3.7 8.51,3.7 3.6,0 6.5,-1.25 8.71,-3.75 2.19,-2.481 3.29,-6.18 3.29,-11.032 V 83.0313 c 0,-5.7227 0.47,-10.5508 1.36,-14.4297 0.97,-3.9297 2.62,-6.9922 5.06,-9.211 2.37,-2.1992 5.64,-3.289 9.75,-3.289 4.04,0 7.81,1.25 11.31,3.7304 3.57,2.4571 6.16,5.6875 7.77,9.668 1.35,3.5391 1.99,11.1992 1.99,23.0781 v 30.1599 c 0,4.852 1.11,8.551 3.32,11.032 2.19,2.5 5.04,3.75 8.59,3.75 3.54,0 6.39,-1.25 8.52,-3.7 2.14,-2.429 3.2,-6.16 3.2,-11.082 V 50.9219 c 0,-4.7227 -1,-8.2735 -3.08,-10.6133 -2.03,-2.3789 -4.68,-3.5273 -7.94,-3.5273 -3.24,0 -5.91,1.25 -8.04,3.6484 -2.1,2.4805 -3.15,5.8789 -3.15,10.3398" />
          <path
             inkscape:connector-curvature="0"
             id="path1712-6-2-6-6-4"
             style="fill:#4d7fc9;fill-opacity:1;fill-rule:nonzero;stroke:none"
             d="m 1666.99,86.5586 c 0,-9.8594 2.15,-17.4063 6.45,-22.7305 4.33,-5.2695 10,-7.957 17.03,-7.957 5.99,0 11.11,2.7305 15.46,8.1406 4.34,5.418 6.48,13.1485 6.48,23.2696 0,6.5976 -0.9,12.2109 -2.69,16.9097 -1.81,4.75 -4.38,8.387 -7.65,10.95 -3.35,2.57 -7.18,3.879 -11.6,3.879 -4.56,0 -8.53,-1.309 -12.09,-3.879 -3.55,-2.563 -6.32,-6.301 -8.37,-11.172 -2.02,-4.8401 -3.02,-10.6292 -3.02,-17.4104 z m -1.14,73.6914 v -37.891 c 4.42,4.891 9,8.563 13.64,11.192 4.64,2.551 10.4,3.847 17.25,3.847 7.87,0 14.77,-1.988 20.74,-5.847 5.93,-3.961 10.57,-9.59 13.83,-16.992 3.29,-7.418 4.92,-16.1996 4.92,-26.3793 0,-7.5195 -0.91,-14.3984 -2.71,-20.6875 -1.85,-6.25 -4.49,-11.6602 -7.96,-16.3008 -3.51,-4.582 -7.73,-8.0898 -12.68,-10.6914 -4.97,-2.4687 -10.44,-3.7383 -16.4,-3.7383 -3.64,0 -7.09,0.4571 -10.33,1.3672 -3.23,0.8906 -5.97,2.082 -8.21,3.6016 -2.28,1.4179 -4.2,2.9883 -5.79,4.5312 -1.61,1.5977 -3.68,3.9375 -6.3,7.0899 v -2.4297 c 0,-4.6797 -1.08,-8.1914 -3.24,-10.6133 -2.13,-2.3789 -4.88,-3.5469 -8.15,-3.5469 -3.39,0 -6.05,1.168 -8.07,3.5469 -1.99,2.4609 -2.99,5.9531 -2.99,10.6133 V 159.16 c 0,4.992 0.98,8.789 2.92,11.36 1.94,2.601 4.63,3.871 8.14,3.871 3.62,0 6.45,-1.231 8.41,-3.711 1.99,-2.43 2.98,-5.891 2.98,-10.43" />
          <path
             inkscape:connector-curvature="0"
             id="path1714-2-5-4-2-7"
             style="fill:#4d7fc9;fill-opacity:1;fill-rule:nonzero;stroke:none"
             d="M 1752.99,51.8516 V 159.32 c 0,4.981 1.06,8.711 3.16,11.27 2.14,2.531 4.98,3.801 8.58,3.801 3.6,0 6.49,-1.25 8.7,-3.77 2.17,-2.5 3.3,-6.301 3.3,-11.301 V 51.8516 c 0,-5.0313 -1.14,-8.8203 -3.36,-11.3516 -2.21,-2.4687 -5.11,-3.7383 -8.64,-3.7383 -3.48,0 -6.28,1.2969 -8.47,3.9102 -2.19,2.6094 -3.27,6.3086 -3.27,11.1797" />
          <path
             inkscape:connector-curvature="0"
             id="path1716-9-43-3-9-8"
             style="fill:#4d7fc9;fill-opacity:1;fill-rule:nonzero;stroke:none"
             d="M 1825,123.43 V 51.8516 c 0,-5 -1.15,-8.75 -3.37,-11.293 -2.27,-2.5 -5.17,-3.7969 -8.62,-3.7969 -3.49,0 -6.31,1.2969 -8.48,3.8867 -2.17,2.6329 -3.27,6.3321 -3.27,11.2032 v 70.8864 c 0,4.852 1.1,8.551 3.27,11.032 2.17,2.5 4.99,3.75 8.48,3.75 3.45,0 6.35,-1.25 8.62,-3.75 2.22,-2.481 3.37,-5.918 3.37,-10.34 z m -11.75,25.629 c -3.29,0 -6.11,1.05 -8.5,3.23 -2.29,2.102 -3.49,5.133 -3.49,9 0,3.5 1.2,6.359 3.61,8.672 2.39,2.277 5.18,3.348 8.38,3.348 3.07,0 5.82,-1 8.19,-3.047 2.36,-2.051 3.56,-5.082 3.56,-8.973 0,-3.84 -1.18,-6.809 -3.48,-8.937 -2.32,-2.153 -5.06,-3.293 -8.27,-3.293" />
          <path
             inkscape:connector-curvature="0"
             id="path1718-1-5-0-1-4"
             style="fill:#4d7fc9;fill-opacity:1;fill-rule:nonzero;stroke:none"
             d="m 1934.6,67.4414 c 0,-3.0703 -0.87,-6.3828 -2.63,-9.8828 -1.8,-3.5195 -4.48,-6.8477 -8.12,-10.0195 -3.61,-3.168 -8.18,-5.7383 -13.68,-7.6602 -5.5,-1.9687 -11.74,-2.918 -18.61,-2.918 -14.68,0 -26.13,4.4688 -34.37,13.3789 -8.23,8.9415 -12.35,20.8711 -12.35,35.8907 0,10.1601 1.87,19.1795 5.62,26.9605 3.78,7.778 9.27,13.848 16.37,18.098 7.12,4.293 15.66,6.422 25.55,6.422 6.17,0 11.83,-0.961 16.96,-2.813 5.13,-1.886 9.48,-4.316 13.03,-7.257 3.57,-2.969 6.29,-6.141 8.2,-9.493 1.91,-3.347 2.81,-6.488 2.81,-9.398 0,-2.93 -1.08,-5.43 -3.17,-7.52 -2.13,-2.0581 -4.67,-3.0894 -7.7,-3.0894 -1.98,0 -3.61,0.5703 -4.93,1.6289 -1.28,1.0195 -2.77,2.6915 -4.38,5.0895 -2.91,4.582 -5.93,8.063 -9.1,10.403 -3.16,2.289 -7.19,3.468 -12.02,3.468 -7.05,0 -12.71,-2.898 -16.99,-8.609 -4.29,-5.762 -6.42,-13.5702 -6.42,-23.4999 0,-4.6523 0.56,-8.9727 1.65,-12.8594 1.1,-3.9219 2.71,-7.2226 4.77,-9.9922 2.1,-2.7578 4.6,-4.8398 7.59,-6.25 2.95,-1.4375 6.2,-2.1601 9.7,-2.1601 4.8,0 8.85,1.1406 12.24,3.4492 3.41,2.3203 6.41,5.832 9,10.5117 1.47,2.8399 3.03,5 4.72,6.6016 1.69,1.5703 3.75,2.3086 6.18,2.3086 2.89,0 5.3,-1.1094 7.23,-3.3985 1.87,-2.3515 2.85,-4.7812 2.85,-7.3906" />
          <path
             inkscape:connector-curvature="0"
             id="path1720-2-7-5-2-5"
             style="fill:#4d7fc9;fill-opacity:1;fill-rule:nonzero;stroke:none"
             d="m 1973.72,87.2813 c 0,-6.711 1,-12.4102 3,-17.1524 2,-4.7266 4.71,-8.2383 8.17,-10.6289 3.52,-2.4297 7.31,-3.6289 11.39,-3.6289 4.2,0 8.01,1.1602 11.44,3.4102 3.46,2.2773 6.2,5.7695 8.29,10.457 2.05,4.6836 3.06,10.543 3.06,17.543 0,6.6406 -1.01,12.2773 -3.06,17.0507 -2.09,4.77 -4.85,8.379 -8.36,10.93 -3.51,2.488 -7.35,3.758 -11.51,3.758 -4.33,0 -8.21,-1.309 -11.66,-3.879 -3.39,-2.563 -6.06,-6.27 -7.94,-11.09 -1.87,-4.8322 -2.82,-10.3596 -2.82,-16.7697 z m 46.66,-36.3594 v 2.4297 c -3.17,-3.8203 -6.33,-6.9024 -9.45,-9.2813 -3.07,-2.4101 -6.45,-4.2187 -10.07,-5.4687 -3.6,-1.2032 -7.59,-1.8399 -11.87,-1.8399 -5.66,0 -10.95,1.2696 -15.78,3.7383 -4.82,2.6016 -9.02,6.1289 -12.55,10.7891 -3.53,4.6523 -6.21,10.1406 -8.06,16.4609 -1.84,6.2617 -2.74,13.0703 -2.74,20.4297 0,15.4613 3.63,27.5903 10.87,36.2423 7.27,8.66 16.8,12.976 28.62,12.976 6.84,0 12.62,-1.25 17.3,-3.75 4.69,-2.398 9.28,-6.179 13.73,-11.289 v 36.602 c 0,5.078 0.98,8.918 2.93,11.519 1.93,2.61 4.68,3.911 8.28,3.911 3.6,0 6.35,-1.211 8.32,-3.571 1.95,-2.379 2.94,-5.929 2.94,-10.57 V 50.9219 c 0,-4.7227 -1.06,-8.2735 -3.15,-10.6133 -2.09,-2.3789 -4.79,-3.5469 -8.11,-3.5469 -3.2,0 -5.92,1.2188 -8.05,3.668 -2.1,2.4297 -3.16,5.9101 -3.16,10.4922" />
          <path
             inkscape:connector-curvature="0"
             id="path1722-7-5-4-7-0"
             style="fill:#4d7fc9;fill-opacity:1;fill-rule:nonzero;stroke:none"
             d="m 2131.74,87.0898 c 0,10.0704 -2.15,17.9612 -6.42,23.5822 -4.26,5.598 -10,8.449 -17.17,8.449 -4.66,0 -8.73,-1.281 -12.28,-3.781 -3.52,-2.539 -6.25,-6.238 -8.16,-11.149 -1.92,-4.8512 -2.88,-10.5504 -2.88,-17.1012 0,-6.4804 0.96,-12.1289 2.84,-16.9609 1.88,-4.8398 4.58,-8.5469 8.1,-11.1289 3.48,-2.5508 7.66,-3.8203 12.38,-3.8203 7.17,0 12.91,2.8008 17.17,8.4609 4.27,5.6289 6.42,13.4805 6.42,23.4492 z m 23.82,0 c 0,-7.3515 -1.11,-14.1601 -3.3,-20.4375 -2.21,-6.1718 -5.38,-11.5507 -9.55,-16.0312 -4.19,-4.5 -9.18,-7.8516 -14.99,-10.3125 -5.8,-2.3789 -12.36,-3.5469 -19.57,-3.5469 -7.18,0 -13.64,1.168 -19.39,3.6289 -5.74,2.3985 -10.71,5.8711 -14.93,10.3789 -4.19,4.5196 -7.37,9.8203 -9.58,15.9493 -2.17,6.1914 -3.23,12.9414 -3.23,20.4101 0,7.5 1.1,14.3591 3.29,20.5821 2.21,6.25 5.36,11.551 9.47,16 4.13,4.41 9.1,7.809 14.98,10.199 5.88,2.379 12.31,3.61 19.39,3.61 7.2,0 13.73,-1.231 19.57,-3.649 5.84,-2.41 10.86,-5.891 15.04,-10.371 4.18,-4.48 7.36,-9.82 9.51,-16 2.22,-6.148 3.29,-12.9805 3.29,-20.4102" />
          <path
             inkscape:connector-curvature="0"
             id="path1724-0-6-1-0-3"
             style="fill:#4d7fc9;fill-opacity:1;fill-rule:nonzero;stroke:none"
             d="m 2255.85,107.551 c -1.77,-4.192 -2.63,-11.5705 -2.63,-22.219 V 52.3984 c 0,-5.1796 -1.11,-9.1171 -3.41,-11.7265 -2.24,-2.6133 -5.25,-3.9102 -8.96,-3.9102 -3.57,0 -6.47,1.2969 -8.69,3.9102 -2.24,2.6094 -3.34,6.5469 -3.34,11.7265 v 39.5235 c 0,6.2187 -0.24,11.0471 -0.65,14.5471 -0.41,3.41 -1.5,6.269 -3.29,8.48 -1.76,2.223 -4.64,3.332 -8.5,3.332 -7.76,0 -12.85,-2.793 -15.35,-8.402 -2.48,-5.547 -3.68,-13.5509 -3.68,-23.9688 V 52.3984 c 0,-5.1601 -1.13,-9.0781 -3.34,-11.6562 -2.24,-2.6836 -5.19,-3.9805 -8.8,-3.9805 -3.62,0 -6.6,1.2969 -8.86,3.9805 -2.31,2.5781 -3.41,6.4961 -3.41,11.6289 v 70.9379 c 0,4.671 0.99,8.211 3.03,10.621 2.09,2.41 4.78,3.66 8.16,3.66 3.24,0 5.96,-1.129 8.13,-3.399 2.17,-2.269 3.26,-5.402 3.26,-9.402 v -2.359 c 4.1,5.16 8.52,8.941 13.2,11.34 4.69,2.41 9.96,3.628 15.66,3.628 5.97,0 11.06,-1.25 15.37,-3.75 4.31,-2.449 7.82,-6.218 10.59,-11.218 4.01,5.039 8.31,8.859 12.89,11.289 4.6,2.461 9.65,3.679 15.21,3.679 6.53,0 12.11,-1.296 16.78,-4 4.72,-2.668 8.22,-6.457 10.54,-11.437 2.04,-4.481 3.04,-11.52 3.04,-21.172 V 52.3984 c 0,-5.1796 -1.12,-9.1171 -3.36,-11.7265 -2.31,-2.6133 -5.26,-3.9102 -8.98,-3.9102 -3.6,0 -6.55,1.2969 -8.81,3.9805 -2.33,2.5781 -3.48,6.4961 -3.48,11.6562 v 41.7032 c 0,5.3203 -0.21,9.5784 -0.64,12.7964 -0.43,3.25 -1.61,5.903 -3.54,8.082 -1.89,2.192 -4.81,3.301 -8.67,3.301 -3.13,0 -6.11,-0.98 -8.89,-2.879 -2.86,-1.972 -5,-4.57 -6.58,-7.851 v 0" />
          <path
             inkscape:connector-curvature="0"
             id="path1726-9-5-4-9-6"
             style="fill:#4d7fc9;fill-opacity:1;fill-rule:nonzero;stroke:none"
             d="m 2390.32,86.6211 c -3.49,-1.3594 -8.55,-2.7422 -15.19,-4.25 -6.64,-1.4805 -11.25,-2.5391 -13.81,-3.2695 -2.55,-0.711 -4.98,-2.0508 -7.29,-4.0703 -2.34,-2.0821 -3.49,-4.9024 -3.49,-8.5313 0,-3.7812 1.36,-6.9687 4.09,-9.5781 2.73,-2.6719 6.3,-3.9727 10.71,-3.9727 4.69,0 9.04,1.0899 13.01,3.25 3.97,2.1211 6.89,4.9297 8.73,8.3008 2.15,3.75 3.24,9.9219 3.24,18.5898 z m 1.56,-35.9102 c -5.77,-4.6523 -11.31,-8.1406 -16.67,-10.4414 -5.36,-2.3593 -11.38,-3.5078 -18.03,-3.5078 -6.13,0 -11.45,1.2696 -16.07,3.7383 -4.63,2.5313 -8.17,5.9492 -10.67,10.2695 -2.48,4.2891 -3.75,8.9219 -3.75,13.961 0,6.7812 2.11,12.5508 6.21,17.3398 4.09,4.7383 9.75,7.961 16.92,9.6094 1.52,0.3594 5.28,1.1523 11.23,2.4219 6.01,1.3007 11.1,2.4492 15.41,3.5 4.23,1.039 8.88,2.3281 13.86,3.8394 -0.31,6.571 -1.56,11.36 -3.78,14.469 -2.24,3.031 -6.9,4.531 -13.89,4.531 -6.05,0 -10.57,-0.851 -13.66,-2.621 -3.02,-1.73 -5.64,-4.39 -7.79,-7.941 -2.2,-3.488 -3.71,-5.809 -4.61,-6.93 -0.92,-1.129 -2.85,-1.64 -5.78,-1.64 -2.69,0 -4.98,0.871 -6.89,2.64 -1.98,1.793 -2.95,4.063 -2.95,6.883 0,4.359 1.49,8.609 4.44,12.668 2.96,4.141 7.57,7.52 13.83,10.219 6.26,2.672 14.07,3.992 23.41,3.992 10.43,0 18.64,-1.32 24.64,-3.891 5.96,-2.531 10.15,-6.57 12.62,-12.199 2.48,-5.531 3.72,-12.941 3.72,-22.1288 0,-5.8008 0,-10.7813 -0.05,-14.8008 -0.05,-4.082 -0.06,-8.6016 -0.13,-13.5508 0,-4.6406 0.74,-9.5312 2.22,-14.5508 1.45,-5.0507 2.19,-8.3203 2.19,-9.7382 0,-2.5508 -1.17,-4.8907 -3.44,-6.9727 -2.24,-2.0703 -4.85,-3.1172 -7.75,-3.1172 -2.45,0 -4.82,1.168 -7.25,3.5469 -2.35,2.4219 -4.88,5.8906 -7.54,10.4023" />
          <path
             inkscape:connector-curvature="0"
             id="path1728-3-9-5-3-1"
             style="fill:#4d7fc9;fill-opacity:1;fill-rule:nonzero;stroke:none"
             d="M 2461.49,123.43 V 51.8516 c 0,-5 -1.14,-8.75 -3.37,-11.293 -2.27,-2.5 -5.12,-3.7969 -8.6,-3.7969 -3.48,0 -6.35,1.2969 -8.49,3.8867 -2.19,2.6329 -3.28,6.3321 -3.28,11.2032 v 70.8864 c 0,4.852 1.09,8.551 3.28,11.032 2.14,2.5 5.01,3.75 8.49,3.75 3.48,0 6.33,-1.25 8.6,-3.75 2.23,-2.481 3.37,-5.918 3.37,-10.34 z m -11.73,25.629 c -3.29,0 -6.1,1.05 -8.46,3.23 -2.34,2.102 -3.55,5.133 -3.55,9 0,3.5 1.22,6.359 3.65,8.672 2.38,2.277 5.19,3.348 8.36,3.348 3.06,0 5.82,-1 8.2,-3.047 2.34,-2.051 3.53,-5.082 3.53,-8.973 0,-3.84 -1.15,-6.809 -3.46,-8.937 -2.34,-2.153 -5.09,-3.293 -8.27,-3.293" />
          <path
             inkscape:connector-curvature="0"
             id="path1730-6-5-8-6-0"
             style="fill:#4d7fc9;fill-opacity:1;fill-rule:nonzero;stroke:none"
             d="m 2507.63,123.789 v -2.957 c 4.14,5.719 8.72,9.949 13.65,12.637 4.98,2.679 10.65,4.051 17.15,4.051 6.23,0 11.83,-1.418 16.79,-4.309 4.89,-2.82 8.6,-6.801 11.02,-12.012 1.56,-3.051 2.55,-6.347 3.04,-9.828 0.44,-3.5 0.71,-7.973 0.71,-13.4296 V 51.8516 c 0,-5 -1.13,-8.75 -3.28,-11.293 -2.18,-2.5 -5.02,-3.7969 -8.48,-3.7969 -3.51,0 -6.4,1.2969 -8.54,3.9102 -2.22,2.6094 -3.35,6.3086 -3.35,11.1797 v 41.2578 c 0,8.2106 -1.06,14.4416 -3.22,18.7696 -2.24,4.32 -6.57,6.5 -13.07,6.5 -4.22,0 -8.08,-1.32 -11.56,-3.969 -3.48,-2.601 -6.03,-6.238 -7.64,-10.84 -1.16,-3.6911 -1.77,-10.57 -1.77,-20.738 V 51.8516 c 0,-5.0313 -1.1,-8.8203 -3.35,-11.3516 -2.24,-2.4687 -5.11,-3.7383 -8.64,-3.7383 -3.41,0 -6.24,1.2969 -8.43,3.8867 -2.23,2.6329 -3.32,6.3321 -3.32,11.2032 V 123.43 c 0,4.742 0.98,8.23 2.97,10.57 1.94,2.34 4.69,3.52 8.09,3.52 2.07,0 3.98,-0.559 5.62,-1.559 1.74,-1.012 3.05,-2.602 4.06,-4.59 0.99,-2.109 1.55,-4.609 1.55,-7.582" />
          <path
             inkscape:connector-curvature="0"
             id="path1732-0-8-5-0-6"
             style="fill:#4d7fc9;fill-opacity:1;fill-rule:nonzero;stroke:none"
             d="m 2608.09,122.082 19.19,-56.2617 20.7,58.7187 c 1.66,4.723 3.24,8.031 4.82,10.02 1.59,1.941 3.93,2.961 7.1,2.961 3.04,0 5.6,-1.059 7.76,-3.219 2.08,-2.102 3.15,-4.512 3.15,-7.36 0,-1.082 -0.21,-2.332 -0.59,-3.742 -0.35,-1.488 -0.79,-2.859 -1.29,-4.148 -0.5,-1.231 -1.01,-2.711 -1.69,-4.321 l -22.8,-58.9995 c -0.64,-1.6914 -1.48,-3.8594 -2.48,-6.4688 -1.03,-2.582 -2.17,-4.7812 -3.4,-6.6914 -1.27,-1.8203 -2.79,-3.2187 -4.6,-4.2617 -1.84,-1.0195 -4.07,-1.5469 -6.68,-1.5469 -3.36,0 -6.05,0.7891 -8.06,2.3789 -2.01,1.6094 -3.5,3.3516 -4.43,5.2891 -0.94,1.8789 -2.58,5.6601 -4.83,11.3008 l -22.63,58.3515 c -0.53,1.449 -1.07,2.91 -1.65,4.348 -0.52,1.449 -0.94,2.91 -1.35,4.441 -0.36,1.551 -0.57,2.84 -0.57,3.891 0,1.726 0.49,3.398 1.5,5.07 0.98,1.668 2.37,3.047 4.09,4.09 1.75,1.039 3.6,1.598 5.66,1.598 3.92,0 6.64,-1.18 8.12,-3.59 1.49,-2.34 3.15,-6.289 4.96,-11.848" />
          <path
             inkscape:connector-curvature="0"
             id="path1734-6-3-1-6-3"
             style="fill:#4d7fc9;fill-opacity:1;fill-rule:nonzero;stroke:none"
             d="m 2705.22,95.1719 h 43.05 c -0.56,8.4371 -2.73,14.7891 -6.56,18.9691 -3.82,4.191 -8.81,6.3 -15.02,6.3 -5.88,0 -10.76,-2.132 -14.53,-6.39 -3.82,-4.231 -6.09,-10.551 -6.94,-18.8791 z m 46.47,-14.0899 h -46.47 c 0.02,-5.6718 1.16,-10.6015 3.23,-14.9414 2.16,-4.25 4.96,-7.4922 8.45,-9.6914 3.52,-2.1992 7.41,-3.2578 11.64,-3.2578 2.83,0 5.44,0.3477 7.78,1.0078 2.34,0.7422 4.63,1.8203 6.85,3.293 2.17,1.4883 4.18,3.0391 6.06,4.7969 1.83,1.6718 4.31,3.9414 7.21,6.8632 1.25,1.1368 2.97,1.6485 5.22,1.6485 2.46,0 4.42,-0.6719 5.93,-2.0899 1.52,-1.4023 2.24,-3.3515 2.24,-5.8789 0,-2.2422 -0.83,-4.8711 -2.53,-7.8906 -1.67,-2.9609 -4.16,-5.8516 -7.6,-8.6328 -3.4,-2.7266 -7.67,-4.9883 -12.8,-6.8477 -5.09,-1.8007 -10.97,-2.6992 -17.69,-2.6992 -15.24,0 -27.11,4.5586 -35.55,13.5977 -8.44,9.1211 -12.67,21.4101 -12.67,36.9219 0,7.4101 1.06,14.1597 3.12,20.4097 2.09,6.27 5.12,11.641 9.12,16.098 4.01,4.512 8.91,7.973 14.79,10.32 5.88,2.391 12.34,3.602 19.51,3.602 9.21,0 17.19,-2.039 23.83,-6.16 6.65,-4.082 11.62,-9.321 14.91,-15.781 3.33,-6.508 4.97,-13.079 4.97,-19.8403 0,-6.1992 -1.66,-10.25 -5.12,-12.0703 -3.46,-1.8906 -8.22,-2.7774 -14.43,-2.7774" />
          <path
             inkscape:connector-curvature="0"
             id="path1736-2-3-9-2-2"
             style="fill:#4d7fc9;fill-opacity:1;fill-rule:nonzero;stroke:none"
             d="m 2876.43,67.4414 c 0,-3.0703 -0.87,-6.3828 -2.67,-9.8828 -1.78,-3.5195 -4.43,-6.8477 -8.09,-10.0195 -3.61,-3.168 -8.2,-5.7383 -13.73,-7.6602 -5.48,-1.9687 -11.72,-2.918 -18.58,-2.918 -14.7,0 -26.15,4.4688 -34.37,13.3789 -8.21,8.9415 -12.36,20.8711 -12.36,35.8907 0,10.1601 1.88,19.1795 5.67,26.9605 3.77,7.778 9.19,13.848 16.34,18.098 7.11,4.293 15.67,6.422 25.59,6.422 6.14,0 11.76,-0.961 16.93,-2.813 5.11,-1.886 9.44,-4.316 13.05,-7.257 3.56,-2.969 6.27,-6.141 8.18,-9.493 1.86,-3.347 2.82,-6.488 2.82,-9.398 0,-2.93 -1.05,-5.43 -3.23,-7.52 -2.09,-2.0581 -4.65,-3.0894 -7.65,-3.0894 -2,0 -3.62,0.5703 -4.89,1.6289 -1.34,1.0195 -2.8,2.6915 -4.45,5.0895 -2.89,4.582 -5.9,8.063 -9.06,10.403 -3.18,2.289 -7.19,3.468 -12.08,3.468 -6.97,0 -12.66,-2.898 -16.93,-8.609 -4.32,-5.762 -6.44,-13.5702 -6.44,-23.4999 0,-4.6523 0.57,-8.9727 1.64,-12.8594 1.11,-3.9219 2.71,-7.2226 4.8,-9.9922 2.09,-2.7578 4.63,-4.8398 7.58,-6.25 2.91,-1.4375 6.17,-2.1601 9.73,-2.1601 4.73,0 8.85,1.1406 12.23,3.4492 3.37,2.3203 6.4,5.832 9.02,10.5117 1.44,2.8399 2.99,5 4.68,6.6016 1.67,1.5703 3.72,2.3086 6.18,2.3086 2.87,0 5.3,-1.1094 7.17,-3.3985 1.95,-2.3515 2.92,-4.7812 2.92,-7.3906" />
          <path
             inkscape:connector-curvature="0"
             id="path1738-6-1-9-6-0"
             style="fill:#4d7fc9;fill-opacity:1;fill-rule:nonzero;stroke:none"
             d="m 2898.49,135.41 h 2.61 v 14.91 c 0,3.961 0.1,7.129 0.32,9.391 0.19,2.269 0.72,4.187 1.7,5.84 0.89,1.668 2.24,3.07 4,4.14 1.71,1.039 3.65,1.539 5.8,1.539 3.01,0 5.74,-1.171 8.16,-3.5 1.61,-1.609 2.65,-3.5 3.09,-5.75 0.44,-2.269 0.64,-5.531 0.64,-9.691 V 135.41 h 8.73 c 3.36,0 5.93,-0.828 7.69,-2.5 1.81,-1.66 2.67,-3.769 2.67,-6.379 0,-3.332 -1.25,-5.699 -3.81,-7 -2.5,-1.312 -6.12,-1.98 -10.82,-1.98 h -4.46 V 71.9102 c 0,-3.8907 0.13,-6.8711 0.4,-8.9805 0.29,-2.1094 1.02,-3.8008 2.13,-5.0703 1.11,-1.3203 2.94,-1.9883 5.51,-1.9883 1.39,0 3.26,0.25 5.67,0.7891 2.33,0.5117 4.19,0.7617 5.55,0.7617 1.9,0 3.66,-0.8321 5.17,-2.3633 1.51,-1.6367 2.31,-3.5781 2.31,-5.9688 0,-3.9804 -2.05,-7.0312 -6.25,-9.1679 -4.22,-2.1133 -10.2,-3.1602 -18.01,-3.1602 -7.43,0 -13.07,1.2969 -16.89,3.9102 -3.82,2.6094 -6.35,6.1797 -7.5,10.8281 -1.22,4.6016 -1.8,10.7305 -1.8,18.4219 v 47.6291 h -3.17 c -3.35,0 -5.98,0.828 -7.78,2.551 -1.82,1.679 -2.71,3.82 -2.71,6.429 0,2.61 0.95,4.719 2.8,6.379 1.92,1.672 4.65,2.5 8.25,2.5" />
          <path
             inkscape:connector-curvature="0"
             id="path1740-1-9-6-1-6"
             style="fill:#4d7fc9;fill-opacity:1;fill-rule:nonzero;stroke:none"
             d="m 3025.26,87.0898 c 0,10.0704 -2.15,17.9612 -6.39,23.5822 -4.3,5.598 -9.97,8.449 -17.19,8.449 -4.64,0 -8.73,-1.281 -12.26,-3.781 -3.55,-2.539 -6.27,-6.238 -8.16,-11.149 -1.91,-4.8512 -2.89,-10.5504 -2.89,-17.1012 0,-6.4804 0.98,-12.1289 2.85,-16.9609 1.88,-4.8398 4.55,-8.5469 8.07,-11.1289 3.49,-2.5508 7.61,-3.8203 12.39,-3.8203 7.22,0 12.89,2.8008 17.19,8.4609 4.24,5.6289 6.39,13.4805 6.39,23.4492 z m 23.83,0 c 0,-7.3515 -1.1,-14.1601 -3.33,-20.4375 -2.18,-6.1718 -5.39,-11.5507 -9.55,-16.0312 -4.17,-4.5 -9.17,-7.8516 -14.95,-10.3125 -5.81,-2.3789 -12.29,-3.5469 -19.58,-3.5469 -7.23,0 -13.68,1.168 -19.4,3.6289 -5.74,2.3985 -10.74,5.8711 -14.91,10.3789 -4.2,4.5196 -7.4,9.8203 -9.55,15.9493 -2.17,6.1914 -3.24,12.9414 -3.24,20.4101 0,7.5 1.07,14.3591 3.24,20.5821 2.27,6.25 5.37,11.551 9.49,16 4.15,4.41 9.13,7.809 14.97,10.199 5.91,2.379 12.36,3.61 19.4,3.61 7.22,0 13.7,-1.231 19.58,-3.649 5.85,-2.41 10.85,-5.891 15.04,-10.371 4.14,-4.48 7.38,-9.82 9.53,-16 2.16,-6.148 3.26,-12.9805 3.26,-20.4102" />
          <path
             inkscape:connector-curvature="0"
             id="path1742-8-9-7-8-1"
             style="fill:#4d7fc9;fill-opacity:1;fill-rule:nonzero;stroke:none"
             d="M 3091.4,72.4805 V 51.8516 c 0,-5.0313 -1.14,-8.8203 -3.4,-11.3516 -2.27,-2.4687 -5.14,-3.7383 -8.63,-3.7383 -3.4,0 -6.24,1.2969 -8.42,3.7969 -2.21,2.543 -3.29,6.293 -3.29,11.293 v 68.9574 c 0,11.152 3.83,16.711 11.55,16.711 3.91,0 6.78,-1.34 8.53,-3.918 1.72,-2.582 2.64,-6.454 2.88,-11.52 2.83,5.066 5.76,8.938 8.75,11.52 2.98,2.578 6.94,3.918 11.91,3.918 5.04,0 9.83,-1.34 14.56,-3.918 4.68,-2.582 7.06,-6.051 7.06,-10.34 0,-3.024 -1.04,-5.551 -3.03,-7.492 -1.97,-1.95 -4.15,-2.969 -6.48,-2.969 -0.86,0 -2.97,0.578 -6.32,1.711 -3.33,1.117 -6.28,1.687 -8.84,1.687 -3.45,0 -6.3,-0.937 -8.47,-2.89 -2.21,-1.918 -3.94,-4.719 -5.16,-8.469 -1.21,-3.77 -2.09,-8.2189 -2.53,-13.4181 -0.44,-5.1406 -0.67,-11.4414 -0.67,-18.9414" />
          <path
             inkscape:connector-curvature="0"
             id="path1744-7-6-9-7-5"
             style="fill:#4d7fc9;fill-opacity:1;fill-rule:nonzero;stroke:none"
             d="m 3217.88,69.1289 c 0,-6.8398 -1.6,-12.6797 -4.82,-17.5703 -3.21,-4.8789 -7.91,-8.5273 -14.14,-11.0781 -6.25,-2.4492 -13.81,-3.7188 -22.8,-3.7188 -8.45,0 -15.8,1.3672 -21.91,4.0899 -6.08,2.7304 -10.6,6.1093 -13.47,10.1875 -2.92,4.0625 -4.4,8.1601 -4.4,12.2617 0,2.7305 0.95,5.0703 2.85,6.9883 1.84,1.9726 4.19,2.9101 7.01,2.9101 2.5,0 4.43,-0.6406 5.76,-1.8906 1.35,-1.3281 2.58,-3.0898 3.82,-5.3672 2.45,-4.4414 5.34,-7.7422 8.78,-9.9219 3.34,-2.2109 7.99,-3.2695 13.89,-3.2695 4.72,0 8.63,1.1094 11.68,3.332 3.02,2.1875 4.61,4.7188 4.61,7.5586 0,4.3789 -1.62,7.5703 -4.75,9.5313 -3.2,2.0586 -8.38,3.9492 -15.64,5.75 -8.17,2.1367 -14.83,4.3476 -19.97,6.6679 -5.14,2.3321 -9.29,5.4415 -12.34,9.2422 -3.08,3.7578 -4.63,8.488 -4.63,14.059 0,4.98 1.43,9.679 4.28,14.05 2.82,4.438 7.07,7.957 12.59,10.61 5.53,2.629 12.21,3.969 20.07,3.969 6.13,0 11.66,-0.688 16.58,-2.008 4.88,-1.321 9.02,-3.133 12.24,-5.352 3.29,-2.25 5.8,-4.719 7.5,-7.422 1.74,-2.769 2.58,-5.418 2.58,-8.008 0,-2.851 -0.9,-5.14 -2.75,-7.019 -1.84,-1.75 -4.46,-2.68 -7.78,-2.68 -2.46,0 -4.51,0.711 -6.25,2.199 -1.68,1.43 -3.67,3.602 -5.85,6.469 -1.8,2.43 -3.91,4.391 -6.37,5.832 -2.44,1.438 -5.74,2.18 -9.9,2.18 -4.3,0 -7.89,-0.949 -10.69,-2.871 -2.85,-1.899 -4.29,-4.281 -4.29,-7.129 0,-2.609 1.05,-4.742 3.12,-6.41 2.11,-1.66 4.9,-3.031 8.46,-4.141 3.55,-1.09 8.42,-2.4491 14.63,-3.9998 7.36,-1.8594 13.38,-4.1016 18.04,-6.7188 4.67,-2.582 8.21,-5.6406 10.61,-9.1992 2.44,-3.5703 3.65,-7.6016 3.65,-12.1133" />
          <path
             inkscape:connector-curvature="0"
             id="path1746-9-1-0-9-5"
             style="fill:#4d7fc9;fill-opacity:1;fill-rule:nonzero;stroke:none"
             d="m 3244.83,36.7617 c -3.59,0 -6.7,1.168 -9.27,3.6289 -2.66,2.3985 -3.95,5.8086 -3.95,10.1407 0,3.6679 1.23,6.8593 3.69,9.5273 2.5,2.6602 5.61,3.9531 9.26,3.9531 3.63,0 6.76,-1.2929 9.28,-3.9336 2.62,-2.5859 3.92,-5.8281 3.92,-9.5468 0,-4.2891 -1.3,-7.6719 -3.92,-10.1016 -2.52,-2.4492 -5.53,-3.668 -9.01,-3.668" />
          <path
             inkscape:connector-curvature="0"
             id="path1748-2-7-5-2-4"
             style="fill:#4d7fc9;fill-opacity:1;fill-rule:nonzero;stroke:none"
             d="m 3349.83,87.0898 c 0,10.0704 -2.14,17.9612 -6.4,23.5822 -4.26,5.598 -9.96,8.449 -17.15,8.449 -4.65,0 -8.69,-1.281 -12.25,-3.781 -3.55,-2.539 -6.27,-6.238 -8.16,-11.149 -1.9,-4.8512 -2.87,-10.5504 -2.87,-17.1012 0,-6.4804 0.92,-12.1289 2.79,-16.9609 1.93,-4.8398 4.61,-8.5469 8.13,-11.1289 3.49,-2.5508 7.61,-3.8203 12.36,-3.8203 7.19,0 12.89,2.8008 17.15,8.4609 4.26,5.6289 6.4,13.4805 6.4,23.4492 z m 23.87,0 c 0,-7.3515 -1.09,-14.1601 -3.34,-20.4375 -2.21,-6.1718 -5.37,-11.5507 -9.55,-16.0312 -4.2,-4.5 -9.12,-7.8516 -14.96,-10.3125 -5.78,-2.3789 -12.31,-3.5469 -19.57,-3.5469 -7.19,0 -13.65,1.168 -19.4,3.6289 -5.74,2.3985 -10.68,5.8711 -14.88,10.3789 -4.26,4.5196 -7.42,9.8203 -9.63,15.9493 -2.13,6.1914 -3.22,12.9414 -3.22,20.4101 0,7.5 1.09,14.3591 3.3,20.5821 2.25,6.25 5.35,11.551 9.45,16 4.13,4.41 9.13,7.809 14.98,10.199 5.86,2.379 12.29,3.61 19.4,3.61 7.19,0 13.71,-1.231 19.57,-3.649 5.88,-2.41 10.88,-5.891 15.06,-10.371 4.16,-4.48 7.32,-9.82 9.53,-16 2.17,-6.148 3.26,-12.9805 3.26,-20.4102" />
          <path
             inkscape:connector-curvature="0"
             id="path1750-0-1-9-0-7"
             style="fill:#4d7fc9;fill-opacity:1;fill-rule:nonzero;stroke:none"
             d="M 3415.99,72.4805 V 51.8516 c 0,-5.0313 -1.14,-8.8203 -3.38,-11.3516 -2.25,-2.4687 -5.14,-3.7383 -8.6,-3.7383 -3.47,0 -6.25,1.2969 -8.47,3.7969 -2.21,2.543 -3.3,6.293 -3.3,11.293 v 68.9574 c 0,11.152 3.9,16.711 11.58,16.711 3.94,0 6.76,-1.34 8.49,-3.918 1.72,-2.582 2.74,-6.454 2.93,-11.52 2.8,5.066 5.71,8.938 8.7,11.52 2.98,2.578 6.99,3.918 11.93,3.918 5.06,0 9.9,-1.34 14.55,-3.918 4.71,-2.582 7.07,-6.051 7.07,-10.34 0,-3.024 -1.02,-5.551 -2.99,-7.492 -2.03,-1.95 -4.16,-2.969 -6.52,-2.969 -0.84,0 -2.93,0.578 -6.27,1.711 -3.34,1.117 -6.29,1.687 -8.87,1.687 -3.46,0 -6.27,-0.937 -8.53,-2.89 -2.17,-1.918 -3.89,-4.719 -5.12,-8.469 -1.19,-3.77 -2.05,-8.2189 -2.5,-13.4181 -0.45,-5.1406 -0.7,-11.4414 -0.7,-18.9414" />
          <path
             inkscape:connector-curvature="0"
             id="path1752-2-4-7-2-6"
             style="fill:#4d7fc9;fill-opacity:1;fill-rule:nonzero;stroke:none"
             d="m 3484.54,87.9414 c 0,-10.0195 2.11,-17.6328 6.33,-22.793 4.18,-5.1171 9.65,-7.7265 16.27,-7.7265 3.92,0 7.69,1.1601 11.19,3.3594 3.52,2.2187 6.37,5.5273 8.59,9.9687 2.21,4.4805 3.29,9.8594 3.29,16.1914 0,10.0977 -2.15,17.9566 -6.41,23.5896 -4.24,5.668 -9.86,8.489 -16.8,8.489 -6.76,0 -12.22,-2.75 -16.29,-8.09 -4.12,-5.418 -6.17,-13.0511 -6.17,-22.9886 z m 68.83,31.4376 V 47.3516 c 0,-8.2422 -0.9,-15.3203 -2.54,-21.2227 -1.68,-5.957 -4.39,-10.8594 -8.09,-14.7187 -3.71,-3.87895 -8.59,-6.73051 -14.55,-8.62895 C 3522.18,0.960938 3514.7,0 3505.79,0 c -8.2,0 -15.53,1.14844 -21.93,3.55078 -6.45,2.44922 -11.41,5.48047 -14.89,9.28902 -3.47,3.75 -5.23,7.6485 -5.23,11.6719 0,3.0274 0.98,5.4883 2.99,7.3867 1.95,1.9414 4.33,2.8907 7.11,2.8907 3.49,0 6.5,-1.6172 9.16,-4.8203 1.27,-1.6797 2.62,-3.3086 3.94,-4.9493 1.35,-1.6875 2.85,-3.1211 4.52,-4.2773 1.66,-1.2109 3.67,-2.082 5.99,-2.6602 2.27,-0.582 4.96,-0.8632 7.99,-0.8632 6.11,0 10.94,0.9101 14.3,2.6796 3.39,1.7735 5.78,4.2735 7.16,7.4727 1.31,3.2109 2.17,6.6289 2.31,10.3086 0.29,3.7109 0.45,9.5586 0.6,17.6797 -3.65,-5.3008 -7.93,-9.3711 -12.67,-12.1485 -4.77,-2.7812 -10.49,-4.1406 -17.05,-4.1406 -8.01,0 -14.96,2.0703 -20.86,6.3399 -5.98,4.2382 -10.55,10.1406 -13.73,17.8007 -3.15,7.5899 -4.79,16.3985 -4.79,26.3985 0,7.4804 0.96,14.2106 2.95,20.2106 1.9,5.95 4.65,11.012 8.3,15.129 3.56,4.121 7.74,7.231 12.42,9.332 4.73,2.059 9.83,3.117 15.49,3.117 6.7,0 12.54,-1.359 17.46,-4.066 4.98,-2.66 9.52,-6.922 13.75,-12.66 V 124 c 0,4.332 1.06,7.621 3.05,10.051 2.03,2.34 4.65,3.539 7.81,3.539 4.61,0 7.66,-1.551 9.18,-4.68 1.49,-3.121 2.25,-7.66 2.25,-13.531" />
          <path
             inkscape:connector-curvature="0"
             id="path1754-3-0-6-3-5"
             style="fill:#4d7fc9;fill-opacity:1;fill-rule:nonzero;stroke:none"
             d="m 2524.18,360.68 h 35.24 c -2.5,-18.989 -10.27,-33.809 -23.22,-44.481 -11.98,-10.437 -26.48,-15.59 -43.44,-15.59 -22.98,0 -41.34,8.071 -55.05,24.211 -12.99,15.328 -19.48,35.129 -19.48,59.321 0,24.8 6.45,44.621 19.31,59.621 12.82,14.937 31,22.457 54.45,22.457 17.46,0 32.23,-4.719 44.21,-14.098 12.72,-10.121 20.47,-24.351 23.22,-42.582 h -35.24 c -3.02,15.902 -12.74,23.82 -29.27,23.82 -27.2,0 -40.86,-16.129 -40.86,-48.398 0,-15.121 3.52,-27.461 10.51,-37.09 7.01,-9.641 16.88,-14.461 29.62,-14.461 18.97,0 28.99,9.102 30,27.27 z m -138.64,22.218 c 0,-31.519 10,-58.207 29.97,-79.929 19.98,-21.758 44.42,-32.637 73.45,-32.637 28.91,0 53.39,10.879 73.35,32.637 20,21.722 29.95,48.41 29.95,79.929 0,31.512 -9.95,58.172 -29.95,79.911 -19.96,21.773 -44.44,32.64 -73.35,32.64 -29.03,0 -53.47,-10.867 -73.45,-32.64 -19.97,-21.739 -29.97,-48.399 -29.97,-79.911 z m -35.77,0 c 0,40.114 13.56,74.344 40.74,102.782 27.2,28.39 60.02,42.59 98.45,42.59 38.37,0 71.15,-14.2 98.37,-42.59 27.19,-28.438 40.8,-62.668 40.8,-102.782 0,-40.136 -13.61,-74.418 -40.8,-102.796 -27.22,-28.422 -60,-42.633 -98.37,-42.633 -38.43,0 -71.25,14.211 -98.45,42.633 -27.18,28.378 -40.74,62.66 -40.74,102.796" />
          <path
             inkscape:connector-curvature="0"
             id="path1756-7-2-6-7-6"
             style="fill:#4d7fc9;fill-opacity:1;fill-rule:nonzero;stroke:none"
             d="m 2406.08,291.719 20.3,-17.219 149.28,191.691 -20.29,17.2 -149.29,-191.672" />
          <path
             inkscape:connector-curvature="0"
             id="path1758-5-5-8-5-9"
             style="fill:#4d7fc9;fill-opacity:1;fill-rule:evenodd;stroke:none"
             d="M 718.848,5368.17 H 4688.45 c 110.84,0 201.52,-90.68 201.52,-201.5 V 1456.06 c 0,-110.88 -90.68,-201.57 -201.52,-201.57 H 718.848 c -110.879,0 -201.551,90.69 -201.551,201.57 v 3710.61 c 0,110.82 90.672,201.5 201.551,201.5" />
          <path
             inkscape:connector-curvature="0"
             id="path1760-9-80-1-9-3"
             style="fill:#b8d5f1;fill-opacity:1;fill-rule:evenodd;stroke:none"
             d="M 201.555,5368.17 H 4171.16 c 110.83,0 201.52,-90.68 201.52,-201.5 V 1456.06 c 0,-110.88 -90.69,-201.57 -201.52,-201.57 H 201.555 C 90.6719,1254.49 0,1345.18 0,1456.06 v 3710.61 c 0,110.82 90.6719,201.5 201.555,201.5" />
          <path
             inkscape:connector-curvature="0"
             id="path1762-2-16-8-2-7"
             style="fill:#4d7fc9;fill-opacity:1;fill-rule:evenodd;stroke:none"
             d="m 3115.95,3606.27 c 159.18,0 318.35,0 477.53,0 0,-152.89 0,-305.81 0,-458.73 -159.18,0 -318.35,0 -477.53,0 0,152.92 0,305.84 0,458.73 z m 584.2,-622.44 c 159.17,0 318.35,0 477.49,0 0,-152.89 0,-305.78 0,-458.67 -159.14,0 -318.32,0 -477.49,0 0,152.89 0,305.78 0,458.67 z m -584.2,0 c 159.18,0 318.35,0 477.53,0 0,-152.89 0,-305.78 0,-458.67 -159.18,0 -318.35,0 -477.53,0 0,152.89 0,305.78 0,458.67 z m 584.2,-622.36 c 159.17,0 318.35,0 477.49,0 0,-152.93 0,-305.82 0,-458.72 -159.14,0 -318.32,0 -477.49,0 0,152.9 0,305.79 0,458.72 z m -584.2,0 c 159.18,0 318.35,0 477.53,0 0,-152.93 0,-305.82 0,-458.72 -159.18,0 -318.35,0 -477.53,0 0,152.9 0,305.79 0,458.72 z m 584.2,1867.2 h 477.49 v -458.7 h -477.49 z m -584.2,0 c 159.18,0 318.35,0 477.53,0 0,-152.92 0,-305.81 0,-458.7 -159.18,0 -318.35,0 -477.53,0 0,152.89 0,305.78 0,458.7 z m 584.2,-622.4 c 159.17,0 318.35,0 477.49,0 0,-152.89 0,-305.81 0,-458.73 -159.14,0 -318.32,0 -477.49,0 0,152.92 0,305.84 0,458.73 v 0" />
          <path
             inkscape:connector-curvature="0"
             id="path1764-2-9-9-2-4"
             style="fill:#ffffff;fill-opacity:1;fill-rule:evenodd;stroke:none"
             d="m 1947.59,3606.27 c 159.18,0 318.32,0 477.53,0 0,-152.89 0,-305.81 0,-458.73 -159.21,0 -318.35,0 -477.53,0 0,152.92 0,305.84 0,458.73 z m -584.16,0 c 159.14,0 318.32,0 477.49,0 0,-152.89 0,-305.81 0,-458.73 -159.17,0 -318.35,0 -477.49,0 0,152.92 0,305.84 0,458.73 z m -1168.391,0 c 159.172,0 318.352,0 477.488,0 0,-152.89 0,-305.81 0,-458.73 -159.136,0 -318.316,0 -477.488,0 0,152.92 0,305.84 0,458.73 z M 2531.76,2983.83 c 159.17,0 318.35,0 477.52,0 0,-152.89 0,-305.78 0,-458.67 -159.17,0 -318.35,0 -477.52,0 0,152.89 0,305.78 0,458.67 z m -584.17,0 c 159.18,0 318.32,0 477.53,0 0,-152.89 0,-305.78 0,-458.67 -159.21,0 -318.35,0 -477.53,0 0,152.89 0,305.78 0,458.67 z m -584.16,0 c 159.14,0 318.32,0 477.49,0 0,-152.89 0,-305.78 0,-458.67 -159.17,0 -318.35,0 -477.49,0 0,152.89 0,305.78 0,458.67 z m -1168.391,0 c 159.172,0 318.352,0 477.488,0 0,-152.89 0,-305.78 0,-458.67 -159.136,0 -318.316,0 -477.488,0 0,152.89 0,305.78 0,458.67 z M 2531.76,2361.47 c 159.17,0 318.35,0 477.52,0 0,-152.93 0,-305.82 0,-458.72 -159.17,0 -318.35,0 -477.52,0 0,152.9 0,305.79 0,458.72 z m -584.17,0 c 159.18,0 318.32,0 477.53,0 0,-152.93 0,-305.82 0,-458.72 -159.21,0 -318.35,0 -477.53,0 0,152.9 0,305.79 0,458.72 z m -584.16,0 c 159.14,0 318.32,0 477.49,0 0,-152.93 0,-305.82 0,-458.72 -159.17,0 -318.35,0 -477.49,0 0,152.9 0,305.79 0,458.72 z m -1168.391,0 c 159.172,0 318.352,0 477.488,0 0,-152.93 0,-305.82 0,-458.72 -159.136,0 -318.316,0 -477.488,0 0,152.9 0,305.79 0,458.72 z M 1363.43,1739.06 c 159.14,0 318.32,0 477.49,0 0,-152.93 0,-305.82 0,-458.71 -159.17,0 -318.35,0 -477.49,0 0,152.89 0,305.78 0,458.71 z m -1168.391,0 H 672.527 V 1280.35 H 195.039 Z m 584.191,0 c 159.137,0 318.35,0 477.5,0 0,-152.93 0,-305.82 0,-458.71 -159.15,0 -318.363,0 -477.5,0 0,152.89 0,305.78 0,458.71 z m 0,622.41 c 159.137,0 318.35,0 477.5,0 0,-152.93 0,-305.82 0,-458.72 -159.15,0 -318.363,0 -477.5,0 0,152.9 0,305.79 0,458.72 z m 0,622.36 c 159.137,0 318.35,0 477.5,0 0,-152.89 0,-305.78 0,-458.67 -159.15,0 -318.363,0 -477.5,0 0,152.89 0,305.78 0,458.67 z m 1752.53,1244.84 c 159.17,0 318.35,0 477.52,0 0,-152.92 0,-305.81 0,-458.7 -159.17,0 -318.35,0 -477.52,0 0,152.89 0,305.78 0,458.7 z m -584.17,0 c 159.18,0 318.32,0 477.53,0 0,-152.92 0,-305.81 0,-458.7 -159.21,0 -318.35,0 -477.53,0 0,152.89 0,305.78 0,458.7 z m -584.16,0 c 159.14,0 318.32,0 477.49,0 0,-152.92 0,-305.81 0,-458.7 -159.17,0 -318.35,0 -477.49,0 0,152.89 0,305.78 0,458.7 z m -1168.391,0 h 477.488 v -458.7 H 195.039 Z m 584.191,0 c 159.137,0 318.35,0 477.5,0 0,-152.92 0,-305.81 0,-458.7 -159.15,0 -318.363,0 -477.5,0 0,152.89 0,305.78 0,458.7 z m 0,-622.4 c 159.137,0 318.35,0 477.5,0 0,-152.89 0,-305.81 0,-458.73 -159.15,0 -318.363,0 -477.5,0 0,152.92 0,305.84 0,458.73 z m 1752.53,0 c 159.17,0 318.35,0 477.52,0 0,-152.89 0,-305.81 0,-458.73 -159.17,0 -318.35,0 -477.52,0 0,152.92 0,305.84 0,458.73 v 0" />
          <path
             inkscape:connector-curvature="0"
             id="path1766-8-7-2-8-5"
             style="fill:#f39c10;fill-opacity:1;fill-rule:evenodd;stroke:none"
             d="M 718.848,5368.17 H 4688.45 c 110.84,0 201.52,-90.68 201.52,-201.5 V 4615.16 H 517.297 v 551.51 c 0,110.82 90.672,201.5 201.551,201.5" />
          <path
             inkscape:connector-curvature="0"
             id="path1768-9-0-9-9-2"
             style="fill:#fbc907;fill-opacity:1;fill-rule:evenodd;stroke:none"
             d="M 201.555,5368.17 H 4171.16 c 110.83,0 201.52,-90.68 201.52,-201.5 V 4615.16 H 0 v 551.51 c 0,110.82 90.6719,201.5 201.555,201.5" />
          <path
             inkscape:connector-curvature="0"
             id="path1770-7-5-5-7-5"
             style="fill:#fbc907;fill-opacity:1;fill-rule:evenodd;stroke:none"
             d="m 1336.2,3992.04 222.72,-193.57 460.04,460.03 -191.07,191.07 -268.97,-499.95 -140.25,115.08 -82.47,-72.66" />
        </g>
      </g>
    </mask>
    <clipPath
       clipPathUnits="userSpaceOnUse"
       id="clipPath2689-3-1-4-3-4">
      <rect
         style="opacity:1;fill:#808080;fill-opacity:1;stroke:none;stroke-width:5.86145544;stroke-miterlimit:4;stroke-dasharray:none;stroke-dashoffset:0;stroke-opacity:1"
         id="rect2691-6-3-6-6-7"
         width="562.5"
         height="433.92856"
         x="-36.215771"
         y="-559.8371"
         transform="scale(1,-1)" />
    </clipPath>
    <filter
       style="color-interpolation-filters:sRGB"
       inkscape:label="Greyscale"
       id="filter28464">
      <feColorMatrix
         values="0.21 0.72 0.072 0 0 0.21 0.72 0.072 0 0 0.21 0.72 0.072 0 0 0 0 0 1 0 "
         id="feColorMatrix28462"
         result="fbSourceGraphic" />
      <feColorMatrix
         result="fbSourceGraphicAlpha"
         in="fbSourceGraphic"
         values="0 0 0 -1 0 0 0 0 -1 0 0 0 0 -1 0 0 0 0 1 0"
         id="feColorMatrix28466" />
      <feColorMatrix
         id="feColorMatrix28468"
         values="0.21 0.72 0.072 0 0 0.21 0.72 0.072 0 0 0.21 0.72 0.072 0 0 0 0 0 1 0 "
         in="fbSourceGraphic" />
    </filter>
    <clipPath
       clipPathUnits="userSpaceOnUse"
       id="clipPath895">
      <rect
         style="opacity:1;fill:#ff4aff;fill-opacity:1;stroke:none;stroke-width:2.41738081;stroke-miterlimit:4;stroke-dasharray:none;stroke-dashoffset:0;stroke-opacity:1"
         id="rect897"
         width="173.21814"
         height="145.55785"
         x="446.63098"
         y="101.47199" />
    </clipPath>
    <clipPath
       clipPathUnits="userSpaceOnUse"
       id="clipPath901">
      <rect
         style="opacity:1;fill:#ff4aff;fill-opacity:1;stroke:none;stroke-width:2.35748911;stroke-miterlimit:4;stroke-dasharray:none;stroke-dashoffset:0;stroke-opacity:1"
         id="rect903"
         width="174.20454"
         height="146.65175"
         x="446.9382"
         y="100.038" />
    </clipPath>
    <clipPath
       clipPathUnits="userSpaceOnUse"
       id="clipPath916">
      <rect
         style="opacity:1;fill:#ff4aff;fill-opacity:1;stroke:none;stroke-width:2.34094644;stroke-miterlimit:4;stroke-dasharray:none;stroke-dashoffset:0;stroke-opacity:1"
         id="rect918"
         width="172.64917"
         height="146.65175"
         x="446.9382"
         y="100.038" />
    </clipPath>
    <clipPath
       clipPathUnits="userSpaceOnUse"
       id="clipPath935">
      <rect
         style="display:inline;opacity:1;fill:#ff4aff;fill-opacity:1;stroke:none;stroke-width:2.3302815;stroke-miterlimit:4;stroke-dasharray:none;stroke-dashoffset:0;stroke-opacity:1"
         id="rect937"
         width="172.64917"
         height="145.31856"
         x="446.9382"
         y="101.59341" />
    </clipPath>
  </defs>
  <sodipodi:namedview
     id="base"
     pagecolor="#ffffff"
     bordercolor="#666666"
     borderopacity="1.0"
     inkscape:pageopacity="0.0"
     inkscape:pageshadow="2"
     inkscape:zoom="1.4"
     inkscape:cx="251.60281"
     inkscape:cy="227.31002"
     inkscape:document-units="mm"
     inkscape:current-layer="layer4"
     showgrid="false"
     fit-margin-top="0"
     fit-margin-left="0"
     fit-margin-right="0"
     fit-margin-bottom="0"
     inkscape:window-width="1848"
     inkscape:window-height="1016"
     inkscape:window-x="72"
     inkscape:window-y="27"
     inkscape:window-maximized="1" />
  <metadata
     id="metadata27704">
    <rdf:RDF>
      <cc:Work
         rdf:about="">
        <dc:format>image/svg+xml</dc:format>
        <dc:type
           rdf:resource="http://purl.org/dc/dcmitype/StillImage" />
        <dc:title></dc:title>
      </cc:Work>
    </rdf:RDF>
  </metadata>
  <g
     inkscape:label="calendar"
     inkscape:groupmode="layer"
     id="layer1"
     transform="translate(-30.56997,-86.889489)"
     style="display:none">
    <rect
       style="opacity:1;fill:#2647a8;fill-opacity:1;stroke:#1b3276;stroke-width:0.25;stroke-miterlimit:4;stroke-dasharray:none;stroke-dashoffset:0;stroke-opacity:1"
       id="rect1634-1-2-1"
       width="241.61165"
       height="202.05576"
       x="413.73325"
       y="77.838989"
       mask="url(#mask1706-6-7-9-6)"
       transform="matrix(0.85053271,0,0,0.85053271,-349.56559,0.48097367)"
       clip-path="url(#clipPath935)" />
  </g>
  <g
     inkscape:groupmode="layer"
     id="layer4"
     inkscape:label="mask-calendar"
     style="display:inline"
     transform="translate(-28.348218,-20.310225)">
    <rect
       style="display:inline;opacity:1;fill:#2647a8;fill-opacity:1;stroke:#1b3276;stroke-width:0.25;stroke-miterlimit:4;stroke-dasharray:none;stroke-dashoffset:0;stroke-opacity:1;filter:url(#filter28464)"
       id="rect1634-1-2-1-4"
       width="241.61165"
       height="202.05576"
       x="413.73325"
       y="77.838989"
       mask="url(#mask1706-6-7-9-6-2)"
       transform="matrix(0.85053271,0,0,0.85053271,-351.78734,-66.09829)"
       clip-path="url(#clipPath895)" />
  </g>
</svg>
