<?xml version="1.0" encoding="UTF-8" standalone="no"?>
<!-- Created with Inkscape (http://www.inkscape.org/) -->

<svg
   xmlns:dc="http://purl.org/dc/elements/1.1/"
   xmlns:cc="http://creativecommons.org/ns#"
   xmlns:rdf="http://www.w3.org/1999/02/22-rdf-syntax-ns#"
   xmlns:svg="http://www.w3.org/2000/svg"
   xmlns="http://www.w3.org/2000/svg"
   xmlns:sodipodi="http://sodipodi.sourceforge.net/DTD/sodipodi-0.dtd"
   xmlns:inkscape="http://www.inkscape.org/namespaces/inkscape"
   width="235.61325mm"
   height="233.10513mm"
   viewBox="0 0 235.61325 233.10513"
   version="1.1"
   id="svg24263"
   inkscape:version="0.92.5 (2060ec1f9f, 2020-04-08)"
   sodipodi:docname="lens.svg">
  <defs
     id="defs24257" />
  <sodipodi:namedview
     id="base"
     pagecolor="#ffffff"
     bordercolor="#666666"
     borderopacity="1.0"
     inkscape:pageopacity="0.0"
     inkscape:pageshadow="2"
     inkscape:zoom="0.49497475"
     inkscape:cx="516.69727"
     inkscape:cy="456.40931"
     inkscape:document-units="mm"
     inkscape:current-layer="lens"
     showgrid="false"
     fit-margin-top="0"
     fit-margin-left="0"
     fit-margin-right="0"
     fit-margin-bottom="0"
     inkscape:window-width="1848"
     inkscape:window-height="1016"
     inkscape:window-x="72"
     inkscape:window-y="27"
     inkscape:window-maximized="1" />
  <metadata
     id="metadata24260">
    <rdf:RDF>
      <cc:Work
         rdf:about="">
        <dc:format>image/svg+xml</dc:format>
        <dc:type
           rdf:resource="http://purl.org/dc/dcmitype/StillImage" />
        <dc:title />
      </cc:Work>
    </rdf:RDF>
  </metadata>
  <g
     inkscape:groupmode="layer"
     id="mask-lens"
     inkscape:label="mask-lens"
     style="display:none">
    <path
       style="fill:#000002;fill-opacity:1;stroke-width:0.49042451"
       d="m 14.984502,232.80686 c -3.8741,-0.7392 -8.2751002,-3.2606 -10.7505002,-6.1589 -3.2914,-3.8538 -4.2734,-6.90501 -4.2328,-13.1509 0.053,-8.1784 0.2458,-8.5182 10.4991002,-18.51 l 8.6875,-8.466 13.3182,13.643 13.3182,13.6429 -8.8114,8.6545 c -5.5446,5.4466 -9.5426,8.9759 -10.7838,9.5213 -2.3784,1.0448 -7.9482,1.453 -11.2445,0.824 z m 25.3355,-40.5243 -13.1994,-13.5348 3.9793,-3.8599 3.9794,-3.86 13.3122,13.6369 13.3122,13.6368 -3.8321,3.761 c -2.1076,2.06869 -3.9492,3.7596 -4.0922,3.7579 -0.1431,0 -6.1997,-6.0939 -13.4594,-13.5381 z m 15.8854,-15.4994 -13.1995,-13.5348 3.9794,-3.8599 3.9794,-3.86 13.3122,13.6369 13.3122,13.6368 -3.8322,3.761 c -2.1075,2.06869 -3.9491,3.7595 -4.0921,3.75779 -0.1431,0 -6.1998,-6.09379 -13.4594,-13.53799 z m 15.8798,-15.50521 -13.205,-13.54039 6.8345,-6.5814 c 8.0766,-7.77761 9.0883,-8.2644 17.1168,-8.2352 4.0528,0.015 5.4376,0.2233 7.6955,1.1587 3.6919,1.5295 7.316,5.0707 8.994598,8.78859 1.2084,2.67661 1.3296,3.47421 1.2697,8.35351 -0.1061,8.62459 -0.3581,9.1432 -8.232998,16.9423 -3.6992,3.6636 -6.8479,6.6596 -6.9971,6.6578 -0.1491,0 -6.2133,-6.0966 -13.476,-13.54391 z M 153.2355,148.17606 c -13.7985,-1.62531 -27.4313,-7.2805 -39.1366,-16.23461 -3.6073,-2.7594 -13.6385,-13.637 -13.6246,-14.7741 0,-0.23559 -0.7839,-1.6191 -1.748598,-3.0743 -2.7829,-4.19819 -7.1737,-14.033 -8.7156,-19.52169 -3.8148,-13.57981 -3.632,-28.854112 0.507,-42.434611 2.0313,-6.6637 7.6416,-17.5378 11.876998,-23.0203 11.8799,-15.378301 28.1807,-25.0881008 47.7064,-28.41690084 6.1507,-1.04859996 18.6275,-0.89509996 24.7506,0.30440004 30.8117,6.0361 53.339,28.3524988 59.8457,59.2854998 0.857,4.074401 0.9907,6.3158 0.8858,14.851602 -0.105,8.53571 -0.2938,10.7731 -1.2507,14.82521 -3.5419,14.9971 -10.6172,27.59819 -21.2605,37.8649 -15.8461,15.2855 -38.2167,22.89159 -59.8368,20.3449 z m 17.4885,-15.73641 c 24.669,-3.98999 43.968,-22.8112 48.896,-47.6857 0.8451,-4.26539 0.9729,-15.057101 0.2319,-19.615602 -4.6152,-28.412099 -28.8954,-49.4015 -57.5545,-49.7539 -28.2952,-0.348 -52.7317,19.365099 -58.5231,47.210802 -1.1923,5.732999 -1.3196,16.08601 -0.2686,21.8466 4.3943,24.08531 23.155,43.0921 47.1037,47.72161 5.2347,1.012 14.7566,1.14269 20.1141,0.2761 z"
       id="path1464-3-8-3-5-1-5-4"
       inkscape:connector-curvature="0" />
  </g>
  <g
     inkscape:groupmode="layer"
     id="mask-stripes"
     inkscape:label="mask-stripes"
     style="display:none">
    <g
       id="g1559-8-8-7-9-4-0"
       style="display:inline;fill:#000000;fill-opacity:1"
       transform="matrix(1.2992476,1.3220018,-1.3220018,1.2992476,138.10334,-211.23715)">
      <rect
         transform="matrix(-0.00361541,-0.99999346,0.99999114,0.00421032,0,0)"
         y="107.48727"
         x="-184.44196"
         height="20.484968"
         width="7.9135389"
         id="rect1466-5-9-9-4-5-6"
         style="opacity:1;fill:#000000;fill-opacity:1;stroke:none;stroke-width:0.33184531;stroke-miterlimit:4;stroke-dasharray:none;stroke-dashoffset:0;stroke-opacity:1" />
      <rect
         transform="matrix(0.99999912,-0.00132886,-0.00837556,0.99996492,0,0)"
         y="136.58142"
         x="114.44865"
         height="20.271595"
         width="10.576173"
         id="rect1466-6-7-5-9-6-3-9-0-7"
         style="opacity:1;fill:#000000;fill-opacity:1;stroke:none;stroke-width:0.38162854;stroke-miterlimit:4;stroke-dasharray:none;stroke-dashoffset:0;stroke-opacity:1" />
      <rect
         transform="matrix(-0.00190026,-0.99999819,0.99998285,0.00585714,0,0)"
         y="107.75626"
         x="-196.46198"
         height="20.512335"
         width="7.483911"
         id="rect1466-6-75-4-7-0-2-8"
         style="opacity:1;fill:#000000;fill-opacity:1;stroke:none;stroke-width:0.32292712;stroke-miterlimit:4;stroke-dasharray:none;stroke-dashoffset:0;stroke-opacity:1" />
      <rect
         transform="matrix(-0.00190576,-0.99999818,0.99998295,0.00584024,0,0)"
         y="107.8409"
         x="-171.9476"
         height="20.571703"
         width="7.483912"
         id="rect1466-6-7-3-3-4-5-7-4"
         style="opacity:1;fill:#000000;fill-opacity:1;stroke:none;stroke-width:0.32339409;stroke-miterlimit:4;stroke-dasharray:none;stroke-dashoffset:0;stroke-opacity:1" />
    </g>
  </g>
  <g
     inkscape:label="lens"
     inkscape:groupmode="layer"
     id="lens"
     transform="translate(17.26496,-27.745053)">
    <path
       style="fill:#1e5fba;fill-opacity:1;stroke-width:0.49042451"
       d="m -2.2804609,260.55191 c -3.8741,-0.7392 -8.2750991,-3.2606 -10.7505001,-6.1589 -3.2914,-3.8538 -4.2734,-6.905 -4.2328,-13.1509 0.053,-8.1784 0.2458,-8.5182 10.4991001,-18.51 l 8.6875,-8.466 13.3181999,13.643 13.318203,13.6429 -8.811401,8.6545 c -5.544601,5.4466 -9.5426,8.9759 -10.7838019,9.5213 -2.3784,1.0448 -7.9482,1.453 -11.2445,0.824 z m 25.3355009,-40.5243 -13.1994009,-13.5348 3.9793009,-3.8599 3.9794,-3.86 13.312201,13.6369 13.312198,13.6368 -3.832098,3.761 c -2.107602,2.0687 -3.9492,3.7596 -4.092202,3.7579 -0.1431,0 -6.199698,-6.0939 -13.459399,-13.5381 z m 15.8854,-15.4994 -13.199501,-13.5348 3.979399,-3.8599 3.979402,-3.86 13.312199,13.6369 13.312201,13.6368 -3.832199,3.761 c -2.107502,2.0687 -3.949102,3.7595 -4.092101,3.7578 -0.1431,0 -6.199799,-6.0938 -13.4594,-13.538 z m 15.8798,-15.5052 -13.205,-13.5404 6.8345,-6.5814 c 8.076599,-7.7776 9.0883,-8.2644 17.116801,-8.2352 4.0528,0.015 5.4376,0.2233 7.695499,1.1587 3.6919,1.5295 7.316001,5.0707 8.9946,8.7886 1.2084,2.6766 1.3296,3.4742 1.2697,8.3535 -0.1061,8.6246 -0.3581,9.1432 -8.232999,16.9423 -3.6992,3.6636 -6.847901,6.6596 -6.997102,6.6578 -0.149098,0 -6.2133,-6.0966 -13.475999,-13.5439 z m 81.1503,-13.1019 c -13.7985,-1.6253 -27.4313,-7.2805 -39.1366,-16.2346 -3.6073,-2.7594 -13.6385,-13.637 -13.6246,-14.7741 0,-0.2356 -0.783901,-1.6191 -1.748601,-3.0743 -2.782898,-4.1982 -7.173698,-14.033 -8.7156,-19.5217 -3.814799,-13.5798 -3.631999,-28.854099 0.507,-42.434595 2.031301,-6.6637 7.641601,-17.5378 11.877001,-23.0203 11.8799,-15.378301 28.1807,-25.088101 47.7064,-28.416901 6.1507,-1.0486 18.6275,-0.8951 24.7506,0.3044 30.8117,6.0361 53.339,28.352499 59.8457,59.2855 0.857,4.074397 0.9907,6.315797 0.8858,14.851596 -0.105,8.53571 -0.2938,10.7731 -1.2507,14.82521 -3.5419,14.99709 -10.6172,27.59819 -21.2605,37.86489 -15.8461,15.2855 -38.2167,22.8916 -59.8368,20.3449 z m 17.4885,-15.7364 c 24.669,-3.99 43.968,-22.8112 48.896,-47.6857 0.8451,-4.2654 0.9729,-15.057099 0.2319,-19.615599 -4.6152,-28.412096 -28.8954,-49.401497 -57.5545,-49.753897 -28.2952,-0.348 -52.7317,19.365099 -58.5231,47.210802 -1.1923,5.732995 -1.3196,16.085994 -0.2686,21.846594 4.3943,24.0853 23.155,43.0921 47.1037,47.7216 5.2347,1.012 14.7566,1.1427 20.1141,0.2761 z"
       id="path1464-3-8-3-5-1-5-1"
       inkscape:connector-curvature="0" />
  </g>
</svg>
